<svg xmlns="http://www.w3.org/2000/svg" xmlns:xlink="http://www.w3.org/1999/xlink" width="2048" zoomAndPan="magnify" viewBox="0 0 1536 449.999984" height="600" preserveAspectRatio="xMidYMid meet" version="1.0"><defs><g/><clipPath id="cff30bcd92"><path d="M 107 24 L 205 24 L 205 232 L 107 232 Z M 107 24 " clip-rule="nonzero"/></clipPath><clipPath id="c627bf80cf"><path d="M 46.214844 148.144531 L 151.667969 17.042969 L 265.191406 108.351562 L 159.738281 239.457031 Z M 46.214844 148.144531 " clip-rule="nonzero"/></clipPath><clipPath id="eedad38fff"><path d="M 46.214844 148.144531 L 151.667969 17.042969 L 265.191406 108.351562 L 159.738281 239.457031 Z M 46.214844 148.144531 " clip-rule="nonzero"/></clipPath><clipPath id="039fe69f91"><path d="M 117 39 L 194 39 L 194 202 L 117 202 Z M 117 39 " clip-rule="nonzero"/></clipPath><clipPath id="f486cbf8d6"><path d="M 69.898438 136.011719 L 152.320312 33.539062 L 241.230469 105.054688 L 158.808594 207.527344 Z M 69.898438 136.011719 " clip-rule="nonzero"/></clipPath><clipPath id="e751ee19d8"><path d="M 69.898438 136.011719 L 152.320312 33.539062 L 241.230469 105.054688 L 158.808594 207.527344 Z M 69.898438 136.011719 " clip-rule="nonzero"/></clipPath><clipPath id="b0008ac5c1"><path d="M 124 57 L 185 57 L 185 185 L 124 185 Z M 124 57 " clip-rule="nonzero"/></clipPath><clipPath id="e9d9044c84"><path d="M 87.375 132.855469 L 152.019531 52.484375 L 221.839844 108.644531 L 157.195312 189.015625 Z M 87.375 132.855469 " clip-rule="nonzero"/></clipPath><clipPath id="2c4997e17b"><path d="M 87.375 132.855469 L 152.019531 52.484375 L 221.839844 108.644531 L 157.195312 189.015625 Z M 87.375 132.855469 " clip-rule="nonzero"/></clipPath><clipPath id="70b5d5ff41"><path d="M 87.375 132.855469 L 152.019531 52.484375 L 221.839844 108.644531 L 157.195312 189.015625 Z M 87.375 132.855469 " clip-rule="nonzero"/></clipPath><clipPath id="f2b05e55d0"><path d="M 150 107 L 169 107 L 169 196 L 150 196 Z M 150 107 " clip-rule="nonzero"/></clipPath><clipPath id="a514b259d0"><path d="M 147.589844 194.632812 L 155.640625 107.332031 L 172.332031 108.871094 L 164.277344 196.171875 Z M 147.589844 194.632812 " clip-rule="nonzero"/></clipPath><clipPath id="533e47dd1b"><path d="M 147.589844 194.632812 L 155.640625 107.332031 L 172.332031 108.871094 L 164.277344 196.171875 Z M 147.589844 194.632812 " clip-rule="nonzero"/></clipPath><clipPath id="7386938fa4"><path d="M 147.59375 194.632812 L 155.621094 107.582031 L 172.046875 109.097656 L 164.015625 196.148438 Z M 147.59375 194.632812 " clip-rule="nonzero"/></clipPath><clipPath id="db511df675"><path d="M 156 85 L 263 85 L 263 217 L 156 217 Z M 156 85 " clip-rule="nonzero"/></clipPath><clipPath id="e7e1634b16"><path d="M 128.5625 112.488281 L 259.078125 76.542969 L 290.230469 189.65625 L 159.714844 225.601562 Z M 128.5625 112.488281 " clip-rule="nonzero"/></clipPath><clipPath id="0c094aac68"><path d="M 128.5625 112.488281 L 259.078125 76.542969 L 290.230469 189.65625 L 159.714844 225.601562 Z M 128.5625 112.488281 " clip-rule="nonzero"/></clipPath><clipPath id="25c20bf543"><path d="M 154 95 L 257 95 L 257 223 L 154 223 Z M 154 95 " clip-rule="nonzero"/></clipPath><clipPath id="94350ba8d5"><path d="M 126.945312 121.1875 L 253.734375 86.265625 L 284.03125 196.273438 L 157.242188 231.191406 Z M 126.945312 121.1875 " clip-rule="nonzero"/></clipPath><clipPath id="f164c4dd8c"><path d="M 126.945312 121.1875 L 253.734375 86.265625 L 284.03125 196.273438 L 157.242188 231.191406 Z M 126.945312 121.1875 " clip-rule="nonzero"/></clipPath><clipPath id="0213ba0503"><path d="M 164 108 L 245 108 L 245 209 L 164 209 Z M 164 108 " clip-rule="nonzero"/></clipPath><clipPath id="6b729c735f"><path d="M 142.96875 128.84375 L 242.40625 101.457031 L 266.199219 187.84375 L 166.761719 215.230469 Z M 142.96875 128.84375 " clip-rule="nonzero"/></clipPath><clipPath id="1aeda94efd"><path d="M 142.96875 128.84375 L 242.40625 101.457031 L 266.199219 187.84375 L 166.761719 215.230469 Z M 142.96875 128.84375 " clip-rule="nonzero"/></clipPath><clipPath id="86537e548b"><path d="M 142.96875 128.84375 L 242.40625 101.457031 L 266.199219 187.84375 L 166.761719 215.230469 Z M 142.96875 128.84375 " clip-rule="nonzero"/></clipPath><clipPath id="485396d721"><path d="M 148 118 L 236 118 L 236 218 L 148 218 Z M 148 118 " clip-rule="nonzero"/></clipPath><clipPath id="778260d5ae"><path d="M 148.308594 198.75 L 211.621094 118.964844 L 235.859375 138.199219 L 172.546875 217.984375 Z M 148.308594 198.75 " clip-rule="nonzero"/></clipPath><clipPath id="91939317c1"><path d="M 12 7 L 72 7 L 72 96 L 12 96 Z M 12 7 " clip-rule="nonzero"/></clipPath><clipPath id="e1e6db2823"><path d="M 0.308594 80.75 L 63.621094 0.964844 L 87.859375 20.199219 L 24.546875 99.984375 Z M 0.308594 80.75 " clip-rule="nonzero"/></clipPath><clipPath id="dd46f6d78f"><path d="M 24.34375 99.824219 L 87.65625 20.035156 L 63.414062 0.804688 L 0.105469 80.589844 Z M 24.34375 99.824219 " clip-rule="nonzero"/></clipPath><clipPath id="b009c1f084"><rect x="0" width="88" y="0" height="100"/></clipPath><clipPath id="18465968b7"><path d="M 59 84 L 156 84 L 156 217 L 59 217 Z M 59 84 " clip-rule="nonzero"/></clipPath><clipPath id="e899b58bda"><path d="M 48.824219 214.257812 L 52.082031 83.433594 L 165.503906 86.257812 L 162.246094 217.078125 Z M 48.824219 214.257812 " clip-rule="nonzero"/></clipPath><clipPath id="6bb6f7be5f"><path d="M 48.824219 214.257812 L 52.082031 83.433594 L 165.503906 86.257812 L 162.246094 217.078125 Z M 48.824219 214.257812 " clip-rule="nonzero"/></clipPath><clipPath id="3acf746c0e"><path d="M 64 93 L 158 93 L 158 223 L 64 223 Z M 64 93 " clip-rule="nonzero"/></clipPath><clipPath id="2cc772b16d"><path d="M 54.726562 220.007812 L 57.871094 93.695312 L 167.425781 96.421875 L 164.285156 222.734375 Z M 54.726562 220.007812 " clip-rule="nonzero"/></clipPath><clipPath id="697ab5a7fc"><path d="M 54.726562 220.007812 L 57.871094 93.695312 L 167.425781 96.421875 L 164.285156 222.734375 Z M 54.726562 220.007812 " clip-rule="nonzero"/></clipPath><clipPath id="4eb2ba91ce"><path d="M 75 105 L 149 105 L 149 208 L 75 208 Z M 75 105 " clip-rule="nonzero"/></clipPath><clipPath id="5b7a9466df"><path d="M 67.9375 205.523438 L 70.425781 105.636719 L 156.78125 107.785156 L 154.292969 207.675781 Z M 67.9375 205.523438 " clip-rule="nonzero"/></clipPath><clipPath id="d07d4d2992"><path d="M 67.9375 205.523438 L 70.425781 105.636719 L 156.78125 107.785156 L 154.292969 207.675781 Z M 67.9375 205.523438 " clip-rule="nonzero"/></clipPath><clipPath id="e85250574b"><path d="M 67.9375 205.523438 L 70.425781 105.636719 L 156.78125 107.785156 L 154.292969 207.675781 Z M 67.9375 205.523438 " clip-rule="nonzero"/></clipPath><clipPath id="5bf357fc1d"><path d="M 98 123 L 150 123 L 150 212 L 98 212 Z M 98 123 " clip-rule="nonzero"/></clipPath><clipPath id="a375b27923"><path d="M 137.386719 215.058594 L 81.542969 134.542969 L 105.910156 117.644531 L 161.75 198.160156 Z M 137.386719 215.058594 " clip-rule="nonzero"/></clipPath><clipPath id="b6c9a2287f"><path d="M 137.386719 215.058594 L 81.542969 134.542969 L 105.910156 117.644531 L 161.75 198.160156 Z M 137.386719 215.058594 " clip-rule="nonzero"/></clipPath><clipPath id="3e774c26f4"><path d="M 152 203 L 249 203 L 249 249 L 152 249 Z M 152 203 " clip-rule="nonzero"/></clipPath><clipPath id="4c549e70fc"><path d="M 187.933594 176.433594 L 251.457031 220.578125 L 213.203125 275.632812 L 149.675781 231.492188 Z M 187.933594 176.433594 " clip-rule="nonzero"/></clipPath><clipPath id="8afe7ef4df"><path d="M 187.933594 176.433594 L 251.457031 220.578125 L 213.203125 275.632812 L 149.675781 231.492188 Z M 187.933594 176.433594 " clip-rule="nonzero"/></clipPath><clipPath id="3640316022"><path d="M 152 206 L 239 206 L 239 247 L 152 247 Z M 152 206 " clip-rule="nonzero"/></clipPath><clipPath id="ce1b582208"><path d="M 184.253906 181.730469 L 241.425781 221.457031 L 206.847656 271.21875 L 149.675781 231.492188 Z M 184.253906 181.730469 " clip-rule="nonzero"/></clipPath><clipPath id="f90fb905aa"><path d="M 184.253906 181.730469 L 241.425781 221.457031 L 206.847656 271.21875 L 149.675781 231.492188 Z M 184.253906 181.730469 " clip-rule="nonzero"/></clipPath><clipPath id="f53e12786c"><path d="M 159 209 L 232 209 L 232 244 L 159 244 Z M 159 209 " clip-rule="nonzero"/></clipPath><clipPath id="e9ff1fed53"><path d="M 186.027344 188.714844 L 234.199219 222.1875 L 205.140625 264.011719 L 156.964844 230.535156 Z M 186.027344 188.714844 " clip-rule="nonzero"/></clipPath><clipPath id="5d167905a5"><path d="M 186.027344 188.714844 L 234.199219 222.1875 L 205.140625 264.011719 L 156.964844 230.535156 Z M 186.027344 188.714844 " clip-rule="nonzero"/></clipPath><clipPath id="4cce36e59f"><path d="M 186.027344 188.714844 L 234.199219 222.1875 L 205.140625 264.011719 L 156.964844 230.535156 Z M 186.027344 188.714844 " clip-rule="nonzero"/></clipPath><clipPath id="9891124f4a"><path d="M 157 215 L 216 215 L 216 234 L 157 234 Z M 157 215 " clip-rule="nonzero"/></clipPath><clipPath id="6f3deea9f0"><path d="M 157.355469 216.578125 L 215.355469 215.183594 L 215.773438 232.585938 L 157.773438 233.976562 Z M 157.355469 216.578125 " clip-rule="nonzero"/></clipPath><clipPath id="131e217534"><path d="M 0.441406 0.078125 L 59 0.078125 L 59 19 L 0.441406 19 Z M 0.441406 0.078125 " clip-rule="nonzero"/></clipPath><clipPath id="9e97c3f59e"><path d="M 0.355469 1.578125 L 58.355469 0.183594 L 58.773438 17.585938 L 0.773438 18.976562 Z M 0.355469 1.578125 " clip-rule="nonzero"/></clipPath><clipPath id="c306e19c7d"><path d="M 0.777344 19.066406 L 58.777344 17.675781 L 58.359375 0.273438 L 0.359375 1.667969 Z M 0.777344 19.066406 " clip-rule="nonzero"/></clipPath><clipPath id="0fce3156a5"><rect x="0" width="59" y="0" height="19"/></clipPath><clipPath id="1e41c63646"><path d="M 66 203 L 161 203 L 161 248 L 66 248 Z M 66 203 " clip-rule="nonzero"/></clipPath><clipPath id="a9133ce763"><path d="M 120.242188 275.65625 L 62.929688 224.664062 L 107.066406 175.058594 L 164.378906 226.050781 Z M 120.242188 275.65625 " clip-rule="nonzero"/></clipPath><clipPath id="32794e6e0b"><path d="M 120.242188 275.65625 L 62.929688 224.664062 L 107.066406 175.058594 L 164.378906 226.050781 Z M 120.242188 275.65625 " clip-rule="nonzero"/></clipPath><clipPath id="bfa46c7919"><path d="M 76 205 L 162 205 L 162 246 L 76 246 Z M 76 205 " clip-rule="nonzero"/></clipPath><clipPath id="21d17debc4"><path d="M 124.496094 270.878906 L 72.964844 225.03125 L 112.8125 180.238281 L 164.347656 226.089844 Z M 124.496094 270.878906 " clip-rule="nonzero"/></clipPath><clipPath id="ef07648562"><path d="M 124.496094 270.878906 L 72.964844 225.03125 L 112.8125 180.238281 L 164.347656 226.089844 Z M 124.496094 270.878906 " clip-rule="nonzero"/></clipPath><clipPath id="55c94512dd"><path d="M 82 208 L 155 208 L 155 243 L 82 243 Z M 82 208 " clip-rule="nonzero"/></clipPath><clipPath id="48c0fc98f1"><path d="M 123.574219 263.785156 L 79.75 224.789062 L 113.601562 186.742188 L 157.425781 225.734375 Z M 123.574219 263.785156 " clip-rule="nonzero"/></clipPath><clipPath id="85b4f43ad3"><path d="M 123.574219 263.785156 L 79.75 224.789062 L 113.601562 186.742188 L 157.425781 225.734375 Z M 123.574219 263.785156 " clip-rule="nonzero"/></clipPath><clipPath id="4fbb8ba284"><path d="M 123.574219 263.785156 L 79.75 224.789062 L 113.601562 186.742188 L 157.425781 225.734375 Z M 123.574219 263.785156 " clip-rule="nonzero"/></clipPath><clipPath id="5202fae0c4"><path d="M 98 215 L 155 215 L 155 236 L 98 236 Z M 98 215 " clip-rule="nonzero"/></clipPath><clipPath id="cdc41fa6b3"><path d="M 154.1875 236.269531 L 97.078125 230.78125 L 98.742188 213.457031 L 155.855469 218.945312 Z M 154.1875 236.269531 " clip-rule="nonzero"/></clipPath><clipPath id="2b78da1eab"><path d="M 154.1875 236.269531 L 97.078125 230.78125 L 98.742188 213.457031 L 155.855469 218.945312 Z M 154.1875 236.269531 " clip-rule="nonzero"/></clipPath><clipPath id="e45c1448e9"><path d="M 151 163 L 282 163 L 282 232 L 151 232 Z M 151 163 " clip-rule="nonzero"/></clipPath><clipPath id="5ac1a4a810"><path d="M 179.496094 134.332031 L 283.785156 170.042969 L 252.882812 260.304688 L 148.589844 224.597656 Z M 179.496094 134.332031 " clip-rule="nonzero"/></clipPath><clipPath id="b2c13d914a"><path d="M 179.496094 134.332031 L 283.785156 170.042969 L 252.882812 260.304688 L 148.589844 224.597656 Z M 179.496094 134.332031 " clip-rule="nonzero"/></clipPath><clipPath id="ebdfdb1530"><path d="M 146 168 L 274 168 L 274 234 L 146 234 Z M 146 168 " clip-rule="nonzero"/></clipPath><clipPath id="9b5d79305a"><path d="M 174.417969 139.441406 L 275.65625 174.105469 L 245.585938 261.929688 L 144.347656 227.265625 Z M 174.417969 139.441406 " clip-rule="nonzero"/></clipPath><clipPath id="4e1695cf2e"><path d="M 174.417969 139.441406 L 275.65625 174.105469 L 245.585938 261.929688 L 144.347656 227.265625 Z M 174.417969 139.441406 " clip-rule="nonzero"/></clipPath><clipPath id="9d79e63fc7"><path d="M 160 174 L 260 174 L 260 226 L 160 226 Z M 160 174 " clip-rule="nonzero"/></clipPath><clipPath id="a1190b6372"><path d="M 181.683594 151.949219 L 261.578125 179.304688 L 237.980469 248.222656 L 158.085938 220.867188 Z M 181.683594 151.949219 " clip-rule="nonzero"/></clipPath><clipPath id="43badc43b5"><path d="M 181.683594 151.949219 L 261.578125 179.304688 L 237.980469 248.222656 L 158.085938 220.867188 Z M 181.683594 151.949219 " clip-rule="nonzero"/></clipPath><clipPath id="8d25be126c"><path d="M 181.683594 151.949219 L 261.578125 179.304688 L 237.980469 248.222656 L 158.085938 220.867188 Z M 181.683594 151.949219 " clip-rule="nonzero"/></clipPath><clipPath id="5655356666"><path d="M 153 176 L 240 176 L 240 226 L 153 226 Z M 153 176 " clip-rule="nonzero"/></clipPath><clipPath id="52ac660712"><path d="M 153.1875 201.449219 L 232.597656 176.761719 L 240.0625 200.769531 L 160.652344 225.457031 Z M 153.1875 201.449219 " clip-rule="nonzero"/></clipPath><clipPath id="5cb5e8c4bf"><path d="M 5 7 L 82 7 L 82 48 L 5 48 Z M 5 7 " clip-rule="nonzero"/></clipPath><clipPath id="2514102efb"><path d="M 0.1875 25.449219 L 79.597656 0.761719 L 87.0625 24.769531 L 7.652344 49.457031 Z M 0.1875 25.449219 " clip-rule="nonzero"/></clipPath><clipPath id="f1377c4dfc"><path d="M 7.605469 49.3125 L 87.015625 24.625 L 79.554688 0.617188 L 0.144531 25.304688 Z M 7.605469 49.3125 " clip-rule="nonzero"/></clipPath><clipPath id="92b779589e"><rect x="0" width="87" y="0" height="50"/></clipPath><clipPath id="773ed36d1b"><path d="M 21 149 L 163 149 L 163 229 L 21 229 Z M 21 149 " clip-rule="nonzero"/></clipPath><clipPath id="5c04a7abc4"><path d="M 77.238281 269.328125 L 14.160156 162.835938 L 106.785156 107.96875 L 169.863281 214.460938 Z M 77.238281 269.328125 " clip-rule="nonzero"/></clipPath><clipPath id="c56726d7ef"><path d="M 77.238281 269.328125 L 14.160156 162.835938 L 106.785156 107.96875 L 169.863281 214.460938 Z M 77.238281 269.328125 " clip-rule="nonzero"/></clipPath><clipPath id="3d290cb80b"><path d="M 31 154 L 168 154 L 168 232 L 31 232 Z M 31 154 " clip-rule="nonzero"/></clipPath><clipPath id="2bb189ee57"><path d="M 84.882812 270.976562 L 23.773438 167.8125 L 113.070312 114.917969 L 174.179688 218.082031 Z M 84.882812 270.976562 " clip-rule="nonzero"/></clipPath><clipPath id="e77736bac8"><path d="M 84.882812 270.976562 L 23.773438 167.8125 L 113.070312 114.917969 L 174.179688 218.082031 Z M 84.882812 270.976562 " clip-rule="nonzero"/></clipPath><clipPath id="05c8cb1d96"><path d="M 45 161 L 153 161 L 153 222 L 45 222 Z M 45 161 " clip-rule="nonzero"/></clipPath><clipPath id="4d4ed87af6"><path d="M 88.203125 252.6875 L 40.234375 171.710938 L 110.675781 129.988281 L 158.640625 210.964844 Z M 88.203125 252.6875 " clip-rule="nonzero"/></clipPath><clipPath id="c2c4406977"><path d="M 88.203125 252.6875 L 40.234375 171.710938 L 110.675781 129.988281 L 158.640625 210.964844 Z M 88.203125 252.6875 " clip-rule="nonzero"/></clipPath><clipPath id="9320e886b3"><path d="M 88.203125 252.6875 L 40.234375 171.710938 L 110.675781 129.988281 L 158.640625 210.964844 Z M 88.203125 252.6875 " clip-rule="nonzero"/></clipPath><clipPath id="b311d8258c"><path d="M 70 170 L 153 170 L 153 224 L 70 224 Z M 70 170 " clip-rule="nonzero"/></clipPath><clipPath id="c217defa8d"><path d="M 148.792969 225.402344 L 63.464844 188.847656 L 74.632812 162.777344 L 159.960938 199.332031 Z M 148.792969 225.402344 " clip-rule="nonzero"/></clipPath><clipPath id="d3a085636d"><path d="M 148.792969 225.402344 L 63.464844 188.847656 L 74.632812 162.777344 L 159.960938 199.332031 Z M 148.792969 225.402344 " clip-rule="nonzero"/></clipPath><clipPath id="d0cc6fdcd8"><rect x="0" width="307" y="0" height="315"/></clipPath><clipPath id="048eb6cfb1"><path d="M 396.796875 70.859375 L 491.429688 70.859375 L 491.429688 165.359375 L 396.796875 165.359375 Z M 396.796875 70.859375 " clip-rule="nonzero"/></clipPath><clipPath id="616721704a"><path d="M 425.488281 99.457031 C 399.375 125.550781 396.871094 165.355469 396.871094 165.359375 C 396.871094 165.359375 417.148438 125.652344 453.859375 107.699219 C 453.859375 107.699219 441.453125 138.933594 406.90625 163.980469 C 420.425781 161.492188 444.863281 154.703125 462.816406 136.761719 C 488.929688 110.667969 491.429688 70.859375 491.429688 70.859375 C 491.429688 70.859375 451.597656 73.359375 425.488281 99.457031 Z M 425.488281 99.457031 " clip-rule="nonzero"/></clipPath><clipPath id="91feb47769"><path d="M 425.488281 99.457031 C 399.375 125.550781 396.871094 165.355469 396.871094 165.359375 C 396.871094 165.359375 417.148438 125.652344 453.859375 107.699219 C 453.859375 107.699219 441.453125 138.933594 406.90625 163.980469 C 420.425781 161.492188 444.863281 154.703125 462.816406 136.761719 C 488.929688 110.667969 491.429688 70.859375 491.429688 70.859375 C 491.429688 70.859375 451.597656 73.359375 425.488281 99.457031 " clip-rule="nonzero"/></clipPath><clipPath id="12b50a57b2"><path d="M 538.621094 121.03125 L 447.078125 23.699219 L 349.683594 115.183594 L 441.226562 212.515625 Z M 538.621094 121.03125 " clip-rule="nonzero"/></clipPath><linearGradient x1="0.108962" gradientTransform="matrix(-121.330326, 113.968883, -114.040424, -121.254215, 506.078929, 59.958458)" y1="0" x2="0.911677" gradientUnits="userSpaceOnUse" y2="0" id="53d157a0db"><stop stop-opacity="1" stop-color="rgb(48.629761%, 75.289917%, 25.099182%)" offset="0"/><stop stop-opacity="1" stop-color="rgb(48.434448%, 75.094604%, 25.099182%)" offset="0.015625"/><stop stop-opacity="1" stop-color="rgb(48.028564%, 74.888611%, 25.099182%)" offset="0.0195312"/><stop stop-opacity="1" stop-color="rgb(47.819519%, 74.879456%, 25.099182%)" offset="0.0234375"/><stop stop-opacity="1" stop-color="rgb(47.628784%, 74.693298%, 25.099182%)" offset="0.03125"/><stop stop-opacity="1" stop-color="rgb(47.247314%, 74.508667%, 25.099182%)" offset="0.0390625"/><stop stop-opacity="1" stop-color="rgb(46.865845%, 74.508667%, 25.099182%)" offset="0.046875"/><stop stop-opacity="1" stop-color="rgb(46.479797%, 74.508667%, 25.099182%)" offset="0.0546875"/><stop stop-opacity="1" stop-color="rgb(46.09375%, 74.325562%, 25.099182%)" offset="0.0625"/><stop stop-opacity="1" stop-color="rgb(45.695496%, 74.130249%, 25.099182%)" offset="0.0664062"/><stop stop-opacity="1" stop-color="rgb(45.489502%, 74.119568%, 25.099182%)" offset="0.0703125"/><stop stop-opacity="1" stop-color="rgb(45.484924%, 74.11499%, 25.099182%)" offset="0.078125"/><stop stop-opacity="1" stop-color="rgb(45.291138%, 73.921204%, 25.099182%)" offset="0.0859375"/><stop stop-opacity="1" stop-color="rgb(44.909668%, 73.728943%, 25.099182%)" offset="0.09375"/><stop stop-opacity="1" stop-color="rgb(44.523621%, 73.728943%, 25.099182%)" offset="0.101563"/><stop stop-opacity="1" stop-color="rgb(44.113159%, 73.529053%, 25.099182%)" offset="0.105469"/><stop stop-opacity="1" stop-color="rgb(43.89801%, 73.329163%, 25.099182%)" offset="0.109375"/><stop stop-opacity="1" stop-color="rgb(43.707275%, 73.329163%, 25.099182%)" offset="0.117188"/><stop stop-opacity="1" stop-color="rgb(43.327332%, 73.327637%, 25.099182%)" offset="0.125"/><stop stop-opacity="1" stop-color="rgb(42.951965%, 73.132324%, 25.099182%)" offset="0.140625"/><stop stop-opacity="1" stop-color="rgb(42.54303%, 72.926331%, 25.099182%)" offset="0.144531"/><stop stop-opacity="1" stop-color="rgb(42.323303%, 72.914124%, 25.099182%)" offset="0.148438"/><stop stop-opacity="1" stop-color="rgb(42.132568%, 72.731018%, 25.099182%)" offset="0.15625"/><stop stop-opacity="1" stop-color="rgb(41.751099%, 72.549438%, 25.099182%)" offset="0.164063"/><stop stop-opacity="1" stop-color="rgb(41.371155%, 72.549438%, 25.099182%)" offset="0.171875"/><stop stop-opacity="1" stop-color="rgb(40.985107%, 72.549438%, 25.099182%)" offset="0.179688"/><stop stop-opacity="1" stop-color="rgb(40.59906%, 72.363281%, 25.283813%)" offset="0.1875"/><stop stop-opacity="1" stop-color="rgb(40.386963%, 72.167969%, 25.479126%)" offset="0.195313"/><stop stop-opacity="1" stop-color="rgb(40.176392%, 72.15271%, 25.489807%)" offset="0.203125"/><stop stop-opacity="1" stop-color="rgb(39.796448%, 71.95282%, 25.489807%)" offset="0.210938"/><stop stop-opacity="1" stop-color="rgb(39.414978%, 71.759033%, 25.489807%)" offset="0.21875"/><stop stop-opacity="1" stop-color="rgb(39.028931%, 71.759033%, 25.489807%)" offset="0.226563"/><stop stop-opacity="1" stop-color="rgb(38.618469%, 71.563721%, 25.489807%)" offset="0.230469"/><stop stop-opacity="1" stop-color="rgb(38.40332%, 71.369934%, 25.489807%)" offset="0.234375"/><stop stop-opacity="1" stop-color="rgb(38.212585%, 71.369934%, 25.489807%)" offset="0.242188"/><stop stop-opacity="1" stop-color="rgb(37.835693%, 71.365356%, 25.489807%)" offset="0.25"/><stop stop-opacity="1" stop-color="rgb(37.454224%, 71.170044%, 25.489807%)" offset="0.265625"/><stop stop-opacity="1" stop-color="rgb(37.043762%, 70.96405%, 25.489807%)" offset="0.269531"/><stop stop-opacity="1" stop-color="rgb(36.828613%, 70.948792%, 25.489807%)" offset="0.273437"/><stop stop-opacity="1" stop-color="rgb(36.637878%, 70.768738%, 25.489807%)" offset="0.28125"/><stop stop-opacity="1" stop-color="rgb(36.256409%, 70.588684%, 25.489807%)" offset="0.289062"/><stop stop-opacity="1" stop-color="rgb(35.874939%, 70.585632%, 25.489807%)" offset="0.296875"/><stop stop-opacity="1" stop-color="rgb(35.488892%, 70.393372%, 25.489807%)" offset="0.304688"/><stop stop-opacity="1" stop-color="rgb(35.102844%, 70.201111%, 25.489807%)" offset="0.3125"/><stop stop-opacity="1" stop-color="rgb(34.892273%, 70.199585%, 25.489807%)" offset="0.320312"/><stop stop-opacity="1" stop-color="rgb(34.681702%, 70.19043%, 25.489807%)" offset="0.328125"/><stop stop-opacity="1" stop-color="rgb(34.300232%, 69.99054%, 25.489807%)" offset="0.335938"/><stop stop-opacity="1" stop-color="rgb(33.918762%, 69.799805%, 25.489807%)" offset="0.34375"/><stop stop-opacity="1" stop-color="rgb(33.532715%, 69.799805%, 25.489807%)" offset="0.351562"/><stop stop-opacity="1" stop-color="rgb(33.122253%, 69.604492%, 25.489807%)" offset="0.355469"/><stop stop-opacity="1" stop-color="rgb(32.907104%, 69.40918%, 25.489807%)" offset="0.359375"/><stop stop-opacity="1" stop-color="rgb(32.71637%, 69.40918%, 25.489807%)" offset="0.367187"/><stop stop-opacity="1" stop-color="rgb(32.342529%, 69.40155%, 25.489807%)" offset="0.375"/><stop stop-opacity="1" stop-color="rgb(32.156372%, 69.206238%, 25.491333%)" offset="0.382813"/><stop stop-opacity="1" stop-color="rgb(31.958008%, 69.018555%, 25.68512%)" offset="0.390625"/><stop stop-opacity="1" stop-color="rgb(31.547546%, 69.000244%, 25.87738%)" offset="0.394531"/><stop stop-opacity="1" stop-color="rgb(31.332397%, 68.983459%, 25.878906%)" offset="0.398438"/><stop stop-opacity="1" stop-color="rgb(31.141663%, 68.806458%, 25.878906%)" offset="0.40625"/><stop stop-opacity="1" stop-color="rgb(30.760193%, 68.629456%, 25.878906%)" offset="0.414062"/><stop stop-opacity="1" stop-color="rgb(30.380249%, 68.623352%, 25.878906%)" offset="0.421875"/><stop stop-opacity="1" stop-color="rgb(29.994202%, 68.42804%, 25.878906%)" offset="0.4375"/><stop stop-opacity="1" stop-color="rgb(29.586792%, 68.238831%, 25.878906%)" offset="0.441406"/><stop stop-opacity="1" stop-color="rgb(29.376221%, 68.238831%, 25.878906%)" offset="0.445312"/><stop stop-opacity="1" stop-color="rgb(29.185486%, 68.226624%, 25.878906%)" offset="0.453125"/><stop stop-opacity="1" stop-color="rgb(28.805542%, 68.026733%, 25.878906%)" offset="0.460938"/><stop stop-opacity="1" stop-color="rgb(28.424072%, 67.83905%, 25.878906%)" offset="0.46875"/><stop stop-opacity="1" stop-color="rgb(28.038025%, 67.83905%, 25.878906%)" offset="0.476563"/><stop stop-opacity="1" stop-color="rgb(27.627563%, 67.643738%, 25.878906%)" offset="0.480469"/><stop stop-opacity="1" stop-color="rgb(27.412415%, 67.449951%, 25.878906%)" offset="0.484375"/><stop stop-opacity="1" stop-color="rgb(27.226257%, 67.43927%, 25.878906%)" offset="0.5"/><stop stop-opacity="1" stop-color="rgb(26.849365%, 67.243958%, 25.878906%)" offset="0.507812"/><stop stop-opacity="1" stop-color="rgb(26.461792%, 67.059326%, 25.878906%)" offset="0.511719"/><stop stop-opacity="1" stop-color="rgb(26.266479%, 67.059326%, 25.878906%)" offset="0.515625"/><stop stop-opacity="1" stop-color="rgb(26.051331%, 67.037964%, 25.878906%)" offset="0.519531"/><stop stop-opacity="1" stop-color="rgb(25.837708%, 67.018127%, 25.878906%)" offset="0.523438"/><stop stop-opacity="1" stop-color="rgb(25.646973%, 66.842651%, 25.878906%)" offset="0.53125"/><stop stop-opacity="1" stop-color="rgb(25.265503%, 66.668701%, 25.878906%)" offset="0.539062"/><stop stop-opacity="1" stop-color="rgb(24.884033%, 66.661072%, 25.878906%)" offset="0.546875"/><stop stop-opacity="1" stop-color="rgb(24.501038%, 66.461182%, 25.878906%)" offset="0.5625"/><stop stop-opacity="1" stop-color="rgb(24.095154%, 66.268921%, 25.878906%)" offset="0.566406"/><stop stop-opacity="1" stop-color="rgb(23.881531%, 66.268921%, 25.878906%)" offset="0.570312"/><stop stop-opacity="1" stop-color="rgb(23.690796%, 66.253662%, 25.878906%)" offset="0.578125"/><stop stop-opacity="1" stop-color="rgb(23.309326%, 66.059875%, 25.878906%)" offset="0.585938"/><stop stop-opacity="1" stop-color="rgb(22.927856%, 65.879822%, 25.88501%)" offset="0.59375"/><stop stop-opacity="1" stop-color="rgb(22.541809%, 65.878296%, 26.080322%)" offset="0.601562"/><stop stop-opacity="1" stop-color="rgb(22.131348%, 65.682983%, 26.269531%)" offset="0.605469"/><stop stop-opacity="1" stop-color="rgb(21.916199%, 65.489197%, 26.269531%)" offset="0.609375"/><stop stop-opacity="1" stop-color="rgb(21.730042%, 65.47699%, 26.269531%)" offset="0.625"/><stop stop-opacity="1" stop-color="rgb(21.353149%, 65.281677%, 26.269531%)" offset="0.632812"/><stop stop-opacity="1" stop-color="rgb(20.965576%, 65.098572%, 26.269531%)" offset="0.636719"/><stop stop-opacity="1" stop-color="rgb(20.770264%, 65.098572%, 26.269531%)" offset="0.640625"/><stop stop-opacity="1" stop-color="rgb(20.555115%, 65.074158%, 26.269531%)" offset="0.644531"/><stop stop-opacity="1" stop-color="rgb(20.341492%, 65.05127%, 26.269531%)" offset="0.648438"/><stop stop-opacity="1" stop-color="rgb(20.150757%, 64.880371%, 26.269531%)" offset="0.65625"/><stop stop-opacity="1" stop-color="rgb(19.770813%, 64.709473%, 26.269531%)" offset="0.664062"/><stop stop-opacity="1" stop-color="rgb(19.400024%, 64.698792%, 26.269531%)" offset="0.671875"/><stop stop-opacity="1" stop-color="rgb(19.212341%, 64.498901%, 26.269531%)" offset="0.679688"/><stop stop-opacity="1" stop-color="rgb(19.010925%, 64.309692%, 26.269531%)" offset="0.6875"/><stop stop-opacity="1" stop-color="rgb(18.600464%, 64.309692%, 26.269531%)" offset="0.691406"/><stop stop-opacity="1" stop-color="rgb(18.385315%, 64.309692%, 26.269531%)" offset="0.695312"/><stop stop-opacity="1" stop-color="rgb(18.19458%, 64.291382%, 26.269531%)" offset="0.703125"/><stop stop-opacity="1" stop-color="rgb(17.81311%, 64.096069%, 26.269531%)" offset="0.710938"/><stop stop-opacity="1" stop-color="rgb(17.427063%, 63.919067%, 26.269531%)" offset="0.71875"/><stop stop-opacity="1" stop-color="rgb(17.041016%, 63.91449%, 26.269531%)" offset="0.726562"/><stop stop-opacity="1" stop-color="rgb(16.659546%, 63.719177%, 26.269531%)" offset="0.734375"/><stop stop-opacity="1" stop-color="rgb(16.448975%, 63.529968%, 26.269531%)" offset="0.742188"/><stop stop-opacity="1" stop-color="rgb(16.239929%, 63.514709%, 26.269531%)" offset="0.75"/><stop stop-opacity="1" stop-color="rgb(15.858459%, 63.319397%, 26.269531%)" offset="0.757812"/><stop stop-opacity="1" stop-color="rgb(15.470886%, 63.139343%, 26.269531%)" offset="0.761719"/><stop stop-opacity="1" stop-color="rgb(15.274048%, 63.139343%, 26.269531%)" offset="0.765625"/><stop stop-opacity="1" stop-color="rgb(15.060425%, 63.111877%, 26.269531%)" offset="0.769531"/><stop stop-opacity="1" stop-color="rgb(14.846802%, 63.085938%, 26.269531%)" offset="0.773438"/><stop stop-opacity="1" stop-color="rgb(14.656067%, 62.916565%, 26.269531%)" offset="0.78125"/><stop stop-opacity="1" stop-color="rgb(14.274597%, 62.748718%, 26.269531%)" offset="0.789062"/><stop stop-opacity="1" stop-color="rgb(13.90686%, 62.734985%, 26.281738%)" offset="0.796875"/><stop stop-opacity="1" stop-color="rgb(13.720703%, 62.535095%, 26.481628%)" offset="0.804688"/><stop stop-opacity="1" stop-color="rgb(13.514709%, 62.348938%, 26.669312%)" offset="0.808594"/><stop stop-opacity="1" stop-color="rgb(13.319397%, 62.348938%, 26.669312%)" offset="0.8125"/><stop stop-opacity="1" stop-color="rgb(13.104248%, 62.324524%, 26.669312%)" offset="0.816406"/><stop stop-opacity="1" stop-color="rgb(12.890625%, 62.30011%, 26.669312%)" offset="0.820312"/><stop stop-opacity="1" stop-color="rgb(12.69989%, 62.129211%, 26.669312%)" offset="0.828125"/><stop stop-opacity="1" stop-color="rgb(12.31842%, 61.959839%, 26.669312%)" offset="0.835938"/><stop stop-opacity="1" stop-color="rgb(11.932373%, 61.959839%, 26.669312%)" offset="0.84375"/><stop stop-opacity="1" stop-color="rgb(11.5448%, 61.952209%, 26.669312%)" offset="0.851562"/><stop stop-opacity="1" stop-color="rgb(11.166382%, 61.756897%, 26.669312%)" offset="0.859375"/><stop stop-opacity="1" stop-color="rgb(10.955811%, 61.569214%, 26.669312%)" offset="0.867188"/><stop stop-opacity="1" stop-color="rgb(10.743713%, 61.550903%, 26.669312%)" offset="0.875"/><stop stop-opacity="1" stop-color="rgb(10.362244%, 61.355591%, 26.669312%)" offset="0.882812"/><stop stop-opacity="1" stop-color="rgb(9.97467%, 61.178589%, 26.669312%)" offset="0.886719"/><stop stop-opacity="1" stop-color="rgb(9.777832%, 61.178589%, 26.669312%)" offset="0.890625"/><stop stop-opacity="1" stop-color="rgb(9.564209%, 61.148071%, 26.669312%)" offset="0.894531"/><stop stop-opacity="1" stop-color="rgb(9.350586%, 61.11908%, 26.669312%)" offset="0.898438"/><stop stop-opacity="1" stop-color="rgb(9.159851%, 60.948181%, 26.669312%)" offset="0.90625"/><stop stop-opacity="1" stop-color="rgb(8.779907%, 60.778809%, 26.669312%)" offset="0.914062"/><stop stop-opacity="1" stop-color="rgb(8.413696%, 60.76355%, 26.669312%)" offset="0.921875"/><stop stop-opacity="1" stop-color="rgb(8.227539%, 60.568237%, 26.669312%)" offset="0.929688"/><stop stop-opacity="1" stop-color="rgb(8.018494%, 60.389709%, 26.669312%)" offset="0.933594"/><stop stop-opacity="1" stop-color="rgb(7.823181%, 60.389709%, 26.669312%)" offset="0.9375"/><stop stop-opacity="1" stop-color="rgb(7.609558%, 60.362244%, 26.669312%)" offset="0.941406"/><stop stop-opacity="1" stop-color="rgb(7.395935%, 60.334778%, 26.669312%)" offset="0.945312"/><stop stop-opacity="1" stop-color="rgb(7.2052%, 60.166931%, 26.669312%)" offset="0.953125"/><stop stop-opacity="1" stop-color="rgb(6.822205%, 59.999084%, 26.669312%)" offset="0.960938"/><stop stop-opacity="1" stop-color="rgb(6.436157%, 59.999084%, 26.669312%)" offset="0.96875"/><stop stop-opacity="1" stop-color="rgb(6.060791%, 59.988403%, 26.669312%)" offset="0.976562"/><stop stop-opacity="1" stop-color="rgb(5.848694%, 59.793091%, 26.669312%)" offset="0.984375"/><stop stop-opacity="1" stop-color="rgb(5.628967%, 59.609985%, 26.669312%)" offset="0.992188"/><stop stop-opacity="1" stop-color="rgb(5.26886%, 59.609985%, 26.669312%)" offset="1"/></linearGradient><clipPath id="8fbdfcf17b"><path d="M 325.023438 98.714844 L 391.679688 98.714844 L 391.679688 165.359375 L 325.023438 165.359375 Z M 325.023438 98.714844 " clip-rule="nonzero"/></clipPath><clipPath id="516ebd4dda"><path d="M 371.441406 118.96875 C 389.820312 137.335938 391.582031 165.355469 391.582031 165.359375 C 391.582031 165.359375 377.3125 137.410156 351.46875 124.773438 C 351.46875 124.773438 360.203125 146.757812 384.519531 164.390625 C 375.003906 162.636719 357.800781 157.859375 345.164062 145.230469 C 326.785156 126.859375 325.023438 98.839844 325.023438 98.839844 C 325.023438 98.839844 353.0625 100.601562 371.441406 118.96875 Z M 371.441406 118.96875 " clip-rule="nonzero"/></clipPath><clipPath id="8cd9337137"><path d="M 371.441406 118.96875 C 389.820312 137.335938 391.582031 165.355469 391.582031 165.359375 C 391.582031 165.359375 377.3125 137.410156 351.46875 124.773438 C 351.46875 124.773438 360.203125 146.757812 384.519531 164.390625 C 375.003906 162.636719 357.800781 157.859375 345.164062 145.230469 C 326.785156 126.859375 325.023438 98.839844 325.023438 98.839844 C 325.023438 98.839844 353.0625 100.601562 371.441406 118.96875 " clip-rule="nonzero"/></clipPath><clipPath id="2c16d5e6ad"><path d="M 291.808594 134.15625 L 356.242188 65.644531 L 424.796875 130.042969 L 360.363281 198.554688 Z M 291.808594 134.15625 " clip-rule="nonzero"/></clipPath><linearGradient x1="0.108682" gradientTransform="matrix(85.403584, 80.221913, 80.272275, -85.350011, 314.732616, 91.194877)" y1="0" x2="0.911398" gradientUnits="userSpaceOnUse" y2="0" id="f5ca5d4451"><stop stop-opacity="1" stop-color="rgb(48.629761%, 75.289917%, 25.099182%)" offset="0"/><stop stop-opacity="1" stop-color="rgb(48.434448%, 75.094604%, 25.099182%)" offset="0.015625"/><stop stop-opacity="1" stop-color="rgb(48.03772%, 74.897766%, 25.099182%)" offset="0.0195312"/><stop stop-opacity="1" stop-color="rgb(47.836304%, 74.89624%, 25.099182%)" offset="0.0234375"/><stop stop-opacity="1" stop-color="rgb(47.645569%, 74.705505%, 25.099182%)" offset="0.03125"/><stop stop-opacity="1" stop-color="rgb(47.264099%, 74.511719%, 25.099182%)" offset="0.0390625"/><stop stop-opacity="1" stop-color="rgb(46.882629%, 74.508667%, 25.099182%)" offset="0.046875"/><stop stop-opacity="1" stop-color="rgb(46.496582%, 74.508667%, 25.099182%)" offset="0.0546875"/><stop stop-opacity="1" stop-color="rgb(46.110535%, 74.334717%, 25.099182%)" offset="0.0625"/><stop stop-opacity="1" stop-color="rgb(45.704651%, 74.139404%, 25.099182%)" offset="0.0664062"/><stop stop-opacity="1" stop-color="rgb(45.491028%, 74.119568%, 25.099182%)" offset="0.0703125"/><stop stop-opacity="1" stop-color="rgb(45.489502%, 74.119568%, 25.099182%)" offset="0.078125"/><stop stop-opacity="1" stop-color="rgb(45.303345%, 73.933411%, 25.099182%)" offset="0.0859375"/><stop stop-opacity="1" stop-color="rgb(44.926453%, 73.738098%, 25.099182%)" offset="0.09375"/><stop stop-opacity="1" stop-color="rgb(44.541931%, 73.728943%, 25.099182%)" offset="0.101562"/><stop stop-opacity="1" stop-color="rgb(44.129944%, 73.529053%, 25.099182%)" offset="0.105469"/><stop stop-opacity="1" stop-color="rgb(43.914795%, 73.329163%, 25.099182%)" offset="0.109375"/><stop stop-opacity="1" stop-color="rgb(43.72406%, 73.329163%, 25.099182%)" offset="0.117187"/><stop stop-opacity="1" stop-color="rgb(43.344116%, 73.329163%, 25.099182%)" offset="0.125"/><stop stop-opacity="1" stop-color="rgb(42.967224%, 73.13385%, 25.099182%)" offset="0.140625"/><stop stop-opacity="1" stop-color="rgb(42.559814%, 72.93396%, 25.099182%)" offset="0.144531"/><stop stop-opacity="1" stop-color="rgb(42.340088%, 72.930908%, 25.099182%)" offset="0.148437"/><stop stop-opacity="1" stop-color="rgb(42.149353%, 72.740173%, 25.099182%)" offset="0.15625"/><stop stop-opacity="1" stop-color="rgb(41.769409%, 72.549438%, 25.099182%)" offset="0.164062"/><stop stop-opacity="1" stop-color="rgb(41.387939%, 72.549438%, 25.099182%)" offset="0.171875"/><stop stop-opacity="1" stop-color="rgb(41.001892%, 72.549438%, 25.099182%)" offset="0.179687"/><stop stop-opacity="1" stop-color="rgb(40.615845%, 72.372437%, 25.276184%)" offset="0.1875"/><stop stop-opacity="1" stop-color="rgb(40.405273%, 72.177124%, 25.471497%)" offset="0.195312"/><stop stop-opacity="1" stop-color="rgb(40.194702%, 72.158813%, 25.489807%)" offset="0.203125"/><stop stop-opacity="1" stop-color="rgb(39.813232%, 71.965027%, 25.489807%)" offset="0.210937"/><stop stop-opacity="1" stop-color="rgb(39.431763%, 71.765137%, 25.489807%)" offset="0.21875"/><stop stop-opacity="1" stop-color="rgb(39.045715%, 71.759033%, 25.489807%)" offset="0.226562"/><stop stop-opacity="1" stop-color="rgb(38.635254%, 71.563721%, 25.489807%)" offset="0.230469"/><stop stop-opacity="1" stop-color="rgb(38.420105%, 71.369934%, 25.489807%)" offset="0.234375"/><stop stop-opacity="1" stop-color="rgb(38.22937%, 71.369934%, 25.489807%)" offset="0.242187"/><stop stop-opacity="1" stop-color="rgb(37.8479%, 71.369934%, 25.489807%)" offset="0.25"/><stop stop-opacity="1" stop-color="rgb(37.466431%, 71.174622%, 25.489807%)" offset="0.265625"/><stop stop-opacity="1" stop-color="rgb(37.060547%, 70.97168%, 25.489807%)" offset="0.269531"/><stop stop-opacity="1" stop-color="rgb(36.845398%, 70.965576%, 25.489807%)" offset="0.273437"/><stop stop-opacity="1" stop-color="rgb(36.654663%, 70.776367%, 25.489807%)" offset="0.28125"/><stop stop-opacity="1" stop-color="rgb(36.273193%, 70.588684%, 25.489807%)" offset="0.289062"/><stop stop-opacity="1" stop-color="rgb(35.891724%, 70.588684%, 25.489807%)" offset="0.296875"/><stop stop-opacity="1" stop-color="rgb(35.505676%, 70.404053%, 25.489807%)" offset="0.304687"/><stop stop-opacity="1" stop-color="rgb(35.119629%, 70.210266%, 25.489807%)" offset="0.3125"/><stop stop-opacity="1" stop-color="rgb(34.909058%, 70.199585%, 25.489807%)" offset="0.320312"/><stop stop-opacity="1" stop-color="rgb(34.698486%, 70.198059%, 25.489807%)" offset="0.328125"/><stop stop-opacity="1" stop-color="rgb(34.317017%, 70.002747%, 25.489807%)" offset="0.335937"/><stop stop-opacity="1" stop-color="rgb(33.935547%, 69.802856%, 25.489807%)" offset="0.34375"/><stop stop-opacity="1" stop-color="rgb(33.551025%, 69.799805%, 25.489807%)" offset="0.351562"/><stop stop-opacity="1" stop-color="rgb(33.140564%, 69.604492%, 25.489807%)" offset="0.355469"/><stop stop-opacity="1" stop-color="rgb(32.925415%, 69.40918%, 25.489807%)" offset="0.359375"/><stop stop-opacity="1" stop-color="rgb(32.73468%, 69.40918%, 25.489807%)" offset="0.367187"/><stop stop-opacity="1" stop-color="rgb(32.35321%, 69.40918%, 25.489807%)" offset="0.375"/><stop stop-opacity="1" stop-color="rgb(31.971741%, 69.213867%, 25.674438%)" offset="0.390625"/><stop stop-opacity="1" stop-color="rgb(31.564331%, 69.009399%, 25.868225%)" offset="0.394531"/><stop stop-opacity="1" stop-color="rgb(31.349182%, 69.000244%, 25.878906%)" offset="0.398437"/><stop stop-opacity="1" stop-color="rgb(31.158447%, 68.814087%, 25.878906%)" offset="0.40625"/><stop stop-opacity="1" stop-color="rgb(30.778503%, 68.629456%, 25.878906%)" offset="0.414062"/><stop stop-opacity="1" stop-color="rgb(30.397034%, 68.629456%, 25.878906%)" offset="0.421875"/><stop stop-opacity="1" stop-color="rgb(30.010986%, 68.441772%, 25.878906%)" offset="0.429687"/><stop stop-opacity="1" stop-color="rgb(29.806519%, 68.24646%, 25.878906%)" offset="0.4375"/><stop stop-opacity="1" stop-color="rgb(29.595947%, 68.238831%, 25.878906%)" offset="0.441406"/><stop stop-opacity="1" stop-color="rgb(29.394531%, 68.238831%, 25.878906%)" offset="0.445312"/><stop stop-opacity="1" stop-color="rgb(29.203796%, 68.235779%, 25.878906%)" offset="0.453125"/><stop stop-opacity="1" stop-color="rgb(28.822327%, 68.037415%, 25.878906%)" offset="0.460937"/><stop stop-opacity="1" stop-color="rgb(28.440857%, 67.840576%, 25.878906%)" offset="0.46875"/><stop stop-opacity="1" stop-color="rgb(28.05481%, 67.83905%, 25.878906%)" offset="0.476562"/><stop stop-opacity="1" stop-color="rgb(27.644348%, 67.643738%, 25.878906%)" offset="0.480469"/><stop stop-opacity="1" stop-color="rgb(27.429199%, 67.449951%, 25.878906%)" offset="0.484375"/><stop stop-opacity="1" stop-color="rgb(27.243042%, 67.448425%, 25.878906%)" offset="0.5"/><stop stop-opacity="1" stop-color="rgb(26.86615%, 67.256165%, 25.878906%)" offset="0.507812"/><stop stop-opacity="1" stop-color="rgb(26.480103%, 67.062378%, 25.878906%)" offset="0.515625"/><stop stop-opacity="1" stop-color="rgb(26.069641%, 67.047119%, 25.878906%)" offset="0.519531"/><stop stop-opacity="1" stop-color="rgb(25.854492%, 67.034912%, 25.878906%)" offset="0.523438"/><stop stop-opacity="1" stop-color="rgb(25.663757%, 66.851807%, 25.878906%)" offset="0.53125"/><stop stop-opacity="1" stop-color="rgb(25.282288%, 66.668701%, 25.878906%)" offset="0.539062"/><stop stop-opacity="1" stop-color="rgb(24.900818%, 66.668701%, 25.878906%)" offset="0.546875"/><stop stop-opacity="1" stop-color="rgb(24.514771%, 66.473389%, 25.878906%)" offset="0.550781"/><stop stop-opacity="1" stop-color="rgb(24.319458%, 66.279602%, 25.878906%)" offset="0.554688"/><stop stop-opacity="1" stop-color="rgb(24.313354%, 66.273499%, 25.878906%)" offset="0.5625"/><stop stop-opacity="1" stop-color="rgb(24.102783%, 66.268921%, 25.878906%)" offset="0.566406"/><stop stop-opacity="1" stop-color="rgb(23.898315%, 66.268921%, 25.878906%)" offset="0.570312"/><stop stop-opacity="1" stop-color="rgb(23.707581%, 66.262817%, 25.878906%)" offset="0.578125"/><stop stop-opacity="1" stop-color="rgb(23.326111%, 66.067505%, 25.878906%)" offset="0.585938"/><stop stop-opacity="1" stop-color="rgb(22.944641%, 65.879822%, 25.878906%)" offset="0.59375"/><stop stop-opacity="1" stop-color="rgb(22.56012%, 65.879822%, 26.066589%)" offset="0.601562"/><stop stop-opacity="1" stop-color="rgb(22.149658%, 65.684509%, 26.261902%)" offset="0.605469"/><stop stop-opacity="1" stop-color="rgb(21.934509%, 65.489197%, 26.269531%)" offset="0.609375"/><stop stop-opacity="1" stop-color="rgb(21.746826%, 65.484619%, 26.269531%)" offset="0.625"/><stop stop-opacity="1" stop-color="rgb(21.369934%, 65.290833%, 26.269531%)" offset="0.632812"/><stop stop-opacity="1" stop-color="rgb(20.983887%, 65.098572%, 26.269531%)" offset="0.636719"/><stop stop-opacity="1" stop-color="rgb(20.788574%, 65.098572%, 26.269531%)" offset="0.640625"/><stop stop-opacity="1" stop-color="rgb(20.573425%, 65.083313%, 26.269531%)" offset="0.644531"/><stop stop-opacity="1" stop-color="rgb(20.358276%, 65.06958%, 26.269531%)" offset="0.648438"/><stop stop-opacity="1" stop-color="rgb(20.167542%, 64.889526%, 26.269531%)" offset="0.65625"/><stop stop-opacity="1" stop-color="rgb(19.787598%, 64.709473%, 26.269531%)" offset="0.664062"/><stop stop-opacity="1" stop-color="rgb(19.407654%, 64.706421%, 26.269531%)" offset="0.671875"/><stop stop-opacity="1" stop-color="rgb(19.219971%, 64.509583%, 26.269531%)" offset="0.679688"/><stop stop-opacity="1" stop-color="rgb(19.026184%, 64.311218%, 26.269531%)" offset="0.6875"/><stop stop-opacity="1" stop-color="rgb(18.618774%, 64.309692%, 26.269531%)" offset="0.691406"/><stop stop-opacity="1" stop-color="rgb(18.403625%, 64.309692%, 26.269531%)" offset="0.695312"/><stop stop-opacity="1" stop-color="rgb(18.212891%, 64.300537%, 26.269531%)" offset="0.703125"/><stop stop-opacity="1" stop-color="rgb(17.831421%, 64.105225%, 26.269531%)" offset="0.710938"/><stop stop-opacity="1" stop-color="rgb(17.445374%, 63.919067%, 26.269531%)" offset="0.71875"/><stop stop-opacity="1" stop-color="rgb(17.059326%, 63.919067%, 26.269531%)" offset="0.726562"/><stop stop-opacity="1" stop-color="rgb(16.668701%, 63.723755%, 26.269531%)" offset="0.730469"/><stop stop-opacity="1" stop-color="rgb(16.468811%, 63.529968%, 26.269531%)" offset="0.734375"/><stop stop-opacity="1" stop-color="rgb(16.45813%, 63.529968%, 26.269531%)" offset="0.742188"/><stop stop-opacity="1" stop-color="rgb(16.256714%, 63.522339%, 26.269531%)" offset="0.75"/><stop stop-opacity="1" stop-color="rgb(15.875244%, 63.327026%, 26.269531%)" offset="0.757812"/><stop stop-opacity="1" stop-color="rgb(15.489197%, 63.139343%, 26.269531%)" offset="0.765625"/><stop stop-opacity="1" stop-color="rgb(15.078735%, 63.121033%, 26.269531%)" offset="0.769531"/><stop stop-opacity="1" stop-color="rgb(14.863586%, 63.104248%, 26.269531%)" offset="0.773438"/><stop stop-opacity="1" stop-color="rgb(14.672852%, 62.92572%, 26.269531%)" offset="0.78125"/><stop stop-opacity="1" stop-color="rgb(14.291382%, 62.748718%, 26.269531%)" offset="0.789062"/><stop stop-opacity="1" stop-color="rgb(13.91449%, 62.744141%, 26.274109%)" offset="0.796875"/><stop stop-opacity="1" stop-color="rgb(13.728333%, 62.54425%, 26.473999%)" offset="0.804688"/><stop stop-opacity="1" stop-color="rgb(13.53302%, 62.348938%, 26.669312%)" offset="0.8125"/><stop stop-opacity="1" stop-color="rgb(13.122559%, 62.332153%, 26.669312%)" offset="0.816406"/><stop stop-opacity="1" stop-color="rgb(12.90741%, 62.316895%, 26.669312%)" offset="0.820312"/><stop stop-opacity="1" stop-color="rgb(12.716675%, 62.138367%, 26.669312%)" offset="0.828125"/><stop stop-opacity="1" stop-color="rgb(12.335205%, 61.959839%, 26.669312%)" offset="0.835938"/><stop stop-opacity="1" stop-color="rgb(11.949158%, 61.959839%, 26.669312%)" offset="0.84375"/><stop stop-opacity="1" stop-color="rgb(11.56311%, 61.959839%, 26.669312%)" offset="0.851562"/><stop stop-opacity="1" stop-color="rgb(11.175537%, 61.764526%, 26.669312%)" offset="0.855469"/><stop stop-opacity="1" stop-color="rgb(10.978699%, 61.569214%, 26.669312%)" offset="0.859375"/><stop stop-opacity="1" stop-color="rgb(10.964966%, 61.569214%, 26.669312%)" offset="0.867188"/><stop stop-opacity="1" stop-color="rgb(10.760498%, 61.560059%, 26.669312%)" offset="0.875"/><stop stop-opacity="1" stop-color="rgb(10.379028%, 61.364746%, 26.669312%)" offset="0.882812"/><stop stop-opacity="1" stop-color="rgb(9.992981%, 61.178589%, 26.669312%)" offset="0.890625"/><stop stop-opacity="1" stop-color="rgb(9.58252%, 61.157227%, 26.669312%)" offset="0.894531"/><stop stop-opacity="1" stop-color="rgb(9.368896%, 61.13739%, 26.669312%)" offset="0.898438"/><stop stop-opacity="1" stop-color="rgb(9.178162%, 60.957336%, 26.669312%)" offset="0.90625"/><stop stop-opacity="1" stop-color="rgb(8.796692%, 60.778809%, 26.669312%)" offset="0.914062"/><stop stop-opacity="1" stop-color="rgb(8.422852%, 60.771179%, 26.669312%)" offset="0.921875"/><stop stop-opacity="1" stop-color="rgb(8.236694%, 60.577393%, 26.669312%)" offset="0.929688"/><stop stop-opacity="1" stop-color="rgb(8.036804%, 60.389709%, 26.669312%)" offset="0.933594"/><stop stop-opacity="1" stop-color="rgb(7.841492%, 60.389709%, 26.669312%)" offset="0.9375"/><stop stop-opacity="1" stop-color="rgb(7.626343%, 60.369873%, 26.669312%)" offset="0.941406"/><stop stop-opacity="1" stop-color="rgb(7.41272%, 60.351562%, 26.669312%)" offset="0.945312"/><stop stop-opacity="1" stop-color="rgb(7.221985%, 60.174561%, 26.669312%)" offset="0.953125"/><stop stop-opacity="1" stop-color="rgb(6.840515%, 59.999084%, 26.669312%)" offset="0.960938"/><stop stop-opacity="1" stop-color="rgb(6.454468%, 59.999084%, 26.669312%)" offset="0.96875"/><stop stop-opacity="1" stop-color="rgb(6.06842%, 59.997559%, 26.669312%)" offset="0.976562"/><stop stop-opacity="1" stop-color="rgb(5.857849%, 59.803772%, 26.669312%)" offset="0.984375"/><stop stop-opacity="1" stop-color="rgb(5.647278%, 59.609985%, 26.669312%)" offset="0.992188"/><stop stop-opacity="1" stop-color="rgb(5.278015%, 59.609985%, 26.669312%)" offset="1"/></linearGradient><clipPath id="a6b0a02eae"><rect x="0" width="1202" y="0" height="278"/></clipPath></defs><g transform="matrix(1, 0, 0, 1, 0, 77)"><g clip-path="url(#d0cc6fdcd8)"><g clip-path="url(#cff30bcd92)"><g clip-path="url(#c627bf80cf)"><g clip-path="url(#eedad38fff)"><path fill="#68b940" d="M 203.984375 130.707031 C 201.257812 187.910156 150.792969 231.976562 150.792969 231.976562 C 150.792969 231.976562 104.730469 183.320312 107.375 126.050781 C 110.019531 68.78125 160.5625 24.785156 160.5625 24.785156 C 160.5625 24.785156 206.710938 73.507812 203.984375 130.707031 Z M 203.984375 130.707031 " fill-opacity="1" fill-rule="nonzero"/></g></g></g><g clip-path="url(#039fe69f91)"><g clip-path="url(#f486cbf8d6)"><g clip-path="url(#e751ee19d8)"><path fill="#ffffff" d="M 193.523438 122.347656 C 191.386719 167.167969 151.84375 201.695312 151.84375 201.695312 C 151.84375 201.695312 115.75 163.570312 117.824219 118.695312 C 119.894531 73.824219 159.5 39.347656 159.5 39.347656 C 159.5 39.347656 195.660156 77.527344 193.523438 122.347656 Z M 193.523438 122.347656 " fill-opacity="1" fill-rule="nonzero"/></g></g></g><g clip-path="url(#b0008ac5c1)"><g clip-path="url(#e9d9044c84)"><g clip-path="url(#2c4997e17b)"><g clip-path="url(#70b5d5ff41)"><path fill="#34ab53" d="M 184.296875 122.210938 C 182.648438 157.34375 151.664062 184.386719 151.664062 184.386719 C 151.664062 184.386719 123.34375 154.480469 124.941406 119.308594 C 126.539062 84.136719 157.574219 57.132812 157.574219 57.132812 C 157.574219 57.132812 185.949219 87.078125 184.296875 122.210938 Z M 184.296875 122.210938 " fill-opacity="1" fill-rule="nonzero"/></g></g></g></g><g clip-path="url(#f2b05e55d0)"><g clip-path="url(#a514b259d0)"><g clip-path="url(#533e47dd1b)"><g clip-path="url(#7386938fa4)"><path fill="#ffffff" d="M 168.472656 147.835938 C 169.875 132.617188 163.605469 119.71875 155.917969 107.660156 C 155.851562 107.621094 155.796875 107.597656 155.753906 107.59375 C 155.664062 107.585938 155.617188 107.648438 155.605469 107.777344 C 155.347656 110.542969 163.714844 124.78125 162.050781 142.839844 C 159.980469 165.265625 151.507812 175.105469 150.621094 184.699219 C 150.292969 188.273438 152.167969 192.078125 153.867188 195.210938 C 153.589844 193.679688 153.554688 192.21875 153.6875 190.78125 C 155.035156 176.1875 166.601562 168.097656 168.472656 147.835938 " fill-opacity="1" fill-rule="nonzero"/></g></g></g></g><g clip-path="url(#db511df675)"><g clip-path="url(#e7e1634b16)"><g clip-path="url(#0c094aac68)"><path fill="#68b940" d="M 239.921875 175.445312 C 211.179688 211.554688 157.421875 216.578125 157.421875 216.578125 C 157.421875 216.578125 150.242188 163.058594 178.960938 126.867188 C 207.679688 90.679688 261.460938 85.738281 261.460938 85.738281 C 261.460938 85.738281 268.664062 139.339844 239.921875 175.445312 Z M 239.921875 175.445312 " fill-opacity="1" fill-rule="nonzero"/></g></g></g><g clip-path="url(#25c20bf543)"><g clip-path="url(#94350ba8d5)"><g clip-path="url(#f164c4dd8c)"><path fill="#ffffff" d="M 235.214844 182.398438 C 207.269531 217.507812 155.003906 222.390625 155.003906 222.390625 C 155.003906 222.390625 148.023438 170.355469 175.945312 135.167969 C 203.871094 99.980469 256.160156 95.175781 256.160156 95.175781 C 256.160156 95.175781 263.160156 147.292969 235.214844 182.398438 Z M 235.214844 182.398438 " fill-opacity="1" fill-rule="nonzero"/></g></g></g><g clip-path="url(#0213ba0503)"><g clip-path="url(#6b729c735f)"><g clip-path="url(#1aeda94efd)"><g clip-path="url(#86537e548b)"><path fill="#34ab53" d="M 227.8125 176.894531 C 205.929688 204.425781 164.980469 208.242188 164.980469 208.242188 C 164.980469 208.242188 159.496094 167.421875 181.363281 139.824219 C 203.230469 112.230469 244.195312 108.476562 244.195312 108.476562 C 244.195312 108.476562 249.699219 149.363281 227.8125 176.894531 Z M 227.8125 176.894531 " fill-opacity="1" fill-rule="nonzero"/></g></g></g></g><g clip-path="url(#485396d721)"><g clip-path="url(#778260d5ae)"><g transform="matrix(1, 0, 0, 1, 148, 118)"><g clip-path="url(#b009c1f084)"><g clip-path="url(#91939317c1)"><g clip-path="url(#e1e6db2823)"><g clip-path="url(#dd46f6d78f)"><path fill="#fdfdfd" d="M 32.804688 39.800781 C 28.472656 45.304688 24.757812 50.65625 21.535156 56.339844 C 18.847656 61.078125 16.519531 65.972656 14.824219 71.15625 C 13.90625 73.957031 13.207031 76.8125 12.890625 79.753906 C 12.648438 81.964844 12.636719 84.175781 13.050781 86.375 C 13.328125 87.851562 13.804688 89.257812 14.570312 90.558594 C 15.925781 92.851562 17.914062 94.34375 20.433594 95.148438 C 22.347656 95.757812 24.316406 95.917969 26.3125 95.800781 C 26.917969 95.765625 27.445312 95.542969 27.898438 95.144531 C 28.429688 94.675781 28.351562 94 27.71875 93.683594 C 27.300781 93.476562 26.859375 93.324219 26.449219 93.101562 C 24.917969 92.269531 23.796875 91.042969 23.003906 89.507812 C 22.230469 88.015625 21.828125 86.414062 21.621094 84.753906 C 21.363281 82.671875 21.414062 80.589844 21.644531 78.507812 C 22.023438 75.054688 22.847656 71.699219 23.902344 68.394531 C 25.324219 63.941406 27.171875 59.660156 29.277344 55.492188 C 32.027344 50.042969 35.179688 44.839844 38.683594 39.839844 C 42.023438 35.070312 45.632812 30.507812 49.550781 26.191406 C 54 21.285156 58.785156 16.738281 64.027344 12.683594 C 65.957031 11.191406 67.949219 9.792969 69.945312 8.398438 C 70.292969 8.152344 70.644531 7.90625 70.957031 7.609375 C 71.019531 7.550781 71.089844 7.484375 71.132812 7.40625 C 71.183594 7.304688 71.148438 7.21875 71.023438 7.222656 C 70.910156 7.222656 70.792969 7.25 70.683594 7.28125 C 70.296875 7.394531 69.933594 7.570312 69.566406 7.734375 C 67.339844 8.738281 65.25 9.984375 63.210938 11.320312 C 59.28125 13.894531 55.570312 16.761719 52.007812 19.820312 C 46.394531 24.644531 41.199219 29.882812 36.367188 35.492188 C 35.046875 37.023438 33.769531 38.59375 32.804688 39.800781 Z M 32.804688 39.800781 " fill-opacity="1" fill-rule="nonzero"/></g></g></g></g></g></g></g><g clip-path="url(#18465968b7)"><g clip-path="url(#e899b58bda)"><g clip-path="url(#6bb6f7be5f)"><path fill="#68b940" d="M 138.019531 129.042969 C 163.328125 165.648438 152.957031 216.671875 152.957031 216.671875 C 152.957031 216.671875 101.554688 208.359375 76.164062 171.75 C 50.773438 135.140625 61.226562 84.121094 61.226562 84.121094 C 61.226562 84.121094 112.710938 92.433594 138.019531 129.042969 Z M 138.019531 129.042969 " fill-opacity="1" fill-rule="nonzero"/></g></g></g><g clip-path="url(#3acf746c0e)"><g clip-path="url(#2cc772b16d)"><g clip-path="url(#697ab5a7fc)"><path fill="#ffffff" d="M 141.121094 137.46875 C 165.636719 172.925781 155.59375 222.347656 155.59375 222.347656 C 155.59375 222.347656 105.804688 214.296875 81.210938 178.835938 C 56.617188 143.375 66.738281 93.957031 66.738281 93.957031 C 66.738281 93.957031 116.609375 102.007812 141.121094 137.46875 Z M 141.121094 137.46875 " fill-opacity="1" fill-rule="nonzero"/></g></g></g><g clip-path="url(#4eb2ba91ce)"><g clip-path="url(#5b7a9466df)"><g clip-path="url(#d07d4d2992)"><g clip-path="url(#e85250574b)"><path fill="#34ab53" d="M 135.960938 140.3125 C 155.257812 168.324219 147.347656 207.367188 147.347656 207.367188 C 147.347656 207.367188 108.148438 201.011719 88.789062 173 C 69.429688 144.984375 77.402344 105.945312 77.402344 105.945312 C 77.402344 105.945312 116.664062 112.300781 135.960938 140.3125 Z M 135.960938 140.3125 " fill-opacity="1" fill-rule="nonzero"/></g></g></g></g><g clip-path="url(#5bf357fc1d)"><g clip-path="url(#a375b27923)"><g clip-path="url(#b6c9a2287f)"><path fill="#fdfdfd" d="M 132.964844 156.777344 C 136.792969 162.34375 140.035156 167.722656 142.785156 173.390625 C 145.074219 178.113281 147.011719 182.972656 148.320312 188.0625 C 149.03125 190.816406 149.523438 193.609375 149.648438 196.457031 C 149.742188 198.601562 149.617188 200.730469 149.082031 202.820312 C 148.722656 204.222656 148.179688 205.546875 147.359375 206.75 C 145.914062 208.871094 143.910156 210.183594 141.433594 210.800781 C 139.554688 211.269531 137.652344 211.300781 135.738281 211.066406 C 135.15625 210.992188 134.664062 210.746094 134.253906 210.332031 C 133.773438 209.851562 133.886719 209.207031 134.515625 208.941406 C 134.929688 208.765625 135.367188 208.648438 135.773438 208.457031 C 137.296875 207.753906 138.453125 206.644531 139.3125 205.214844 C 140.148438 203.828125 140.636719 202.308594 140.9375 200.726562 C 141.316406 198.738281 141.394531 196.730469 141.304688 194.714844 C 141.152344 191.367188 140.566406 188.089844 139.757812 184.84375 C 138.664062 180.46875 137.152344 176.238281 135.386719 172.09375 C 133.078125 166.679688 130.367188 161.476562 127.308594 156.453125 C 124.386719 151.652344 121.199219 147.039062 117.695312 142.644531 C 113.71875 137.648438 109.398438 132.972656 104.605469 128.746094 C 102.84375 127.191406 101.007812 125.726562 99.175781 124.257812 C 98.855469 124 98.535156 123.738281 98.25 123.4375 C 98.191406 123.375 98.132812 123.304688 98.097656 123.230469 C 98.050781 123.128906 98.09375 123.046875 98.210938 123.058594 C 98.320312 123.066406 98.429688 123.101562 98.535156 123.140625 C 98.898438 123.273438 99.238281 123.460938 99.578125 123.644531 C 101.664062 124.746094 103.59375 126.074219 105.476562 127.488281 C 109.097656 130.207031 112.488281 133.195312 115.726562 136.359375 C 120.828125 141.347656 125.503906 146.714844 129.804688 152.410156 C 130.980469 153.964844 132.109375 155.554688 132.964844 156.777344 Z M 132.964844 156.777344 " fill-opacity="1" fill-rule="nonzero"/></g></g></g><g clip-path="url(#3e774c26f4)"><g clip-path="url(#4c549e70fc)"><g clip-path="url(#8afe7ef4df)"><path fill="#68b940" d="M 201.007812 248.199219 C 174.699219 248.789062 152.871094 227.074219 152.871094 227.074219 C 152.871094 227.074219 173.695312 204.390625 200.03125 203.761719 C 226.371094 203.128906 248.167969 224.882812 248.167969 224.882812 C 248.167969 224.882812 227.316406 247.605469 201.007812 248.199219 Z M 201.007812 248.199219 " fill-opacity="1" fill-rule="nonzero"/></g></g></g><g clip-path="url(#3640316022)"><g clip-path="url(#ce1b582208)"><g clip-path="url(#f90fb905aa)"><path fill="#ffffff" d="M 196.070312 246.585938 C 172.292969 247.121094 152.566406 227.496094 152.566406 227.496094 C 152.566406 227.496094 171.386719 206.996094 195.1875 206.425781 C 218.992188 205.855469 238.691406 225.515625 238.691406 225.515625 C 238.691406 225.515625 219.847656 246.050781 196.070312 246.585938 Z M 196.070312 246.585938 " fill-opacity="1" fill-rule="nonzero"/></g></g></g><g clip-path="url(#f53e12786c)"><g clip-path="url(#e9ff1fed53)"><g clip-path="url(#5d167905a5)"><g clip-path="url(#4cce36e59f)"><path fill="#34ab53" d="M 195.941406 243.257812 C 175.949219 243.714844 159.371094 227.21875 159.371094 227.21875 C 159.371094 227.21875 175.199219 209.96875 195.214844 209.480469 C 215.226562 208.996094 231.785156 225.523438 231.785156 225.523438 C 231.785156 225.523438 215.933594 242.800781 195.941406 243.257812 Z M 195.941406 243.257812 " fill-opacity="1" fill-rule="nonzero"/></g></g></g></g><g clip-path="url(#9891124f4a)"><g clip-path="url(#6f3deea9f0)"><g transform="matrix(1, 0, 0, 1, 157, 215)"><g clip-path="url(#0fce3156a5)"><g clip-path="url(#131e217534)"><g clip-path="url(#9e97c3f59e)"><g clip-path="url(#c306e19c7d)"><path fill="#fdfdfd" d="M 30.15625 0.859375 C 26.164062 0.972656 22.464844 1.296875 18.796875 1.960938 C 15.742188 2.515625 12.746094 3.28125 9.855469 4.429688 C 8.292969 5.050781 6.785156 5.789062 5.382812 6.722656 C 4.328125 7.425781 3.351562 8.226562 2.542969 9.210938 C 1.996094 9.871094 1.554688 10.59375 1.265625 11.402344 C 0.753906 12.835938 0.824219 14.25 1.394531 15.648438 C 1.824219 16.710938 2.472656 17.628906 3.253906 18.460938 C 3.488281 18.714844 3.78125 18.863281 4.121094 18.917969 C 4.519531 18.976562 4.785156 18.699219 4.695312 18.304688 C 4.632812 18.046875 4.539062 17.796875 4.484375 17.535156 C 4.292969 16.5625 4.421875 15.625 4.800781 14.714844 C 5.171875 13.832031 5.730469 13.070312 6.378906 12.375 C 7.199219 11.5 8.128906 10.761719 9.125 10.105469 C 10.777344 9.007812 12.546875 8.144531 14.378906 7.402344 C 16.851562 6.398438 19.398438 5.644531 21.996094 5.042969 C 25.386719 4.261719 28.816406 3.742188 32.285156 3.449219 C 35.59375 3.171875 38.910156 3.085938 42.230469 3.226562 C 46.003906 3.386719 49.742188 3.820312 53.433594 4.636719 C 54.792969 4.9375 56.132812 5.300781 57.472656 5.664062 C 57.707031 5.730469 57.941406 5.792969 58.1875 5.820312 C 58.238281 5.828125 58.289062 5.832031 58.339844 5.824219 C 58.402344 5.8125 58.429688 5.761719 58.382812 5.710938 C 58.339844 5.660156 58.285156 5.621094 58.230469 5.582031 C 58.039062 5.453125 57.832031 5.359375 57.625 5.257812 C 56.371094 4.648438 55.0625 4.1875 53.734375 3.785156 C 51.171875 3.003906 48.5625 2.421875 45.921875 1.980469 C 41.757812 1.28125 37.5625 0.917969 33.34375 0.847656 C 32.191406 0.828125 31.039062 0.84375 30.15625 0.859375 Z M 30.15625 0.859375 " fill-opacity="1" fill-rule="nonzero"/></g></g></g></g></g></g></g><g clip-path="url(#1e41c63646)"><g clip-path="url(#a9133ce763)"><g clip-path="url(#32794e6e0b)"><path fill="#68b940" d="M 115.871094 203.371094 C 141.875 205.910156 160.808594 229.902344 160.808594 229.902344 C 160.808594 229.902344 137.59375 249.789062 111.558594 247.285156 C 85.523438 244.78125 66.621094 220.753906 66.621094 220.753906 C 66.621094 220.753906 89.871094 200.832031 115.871094 203.371094 Z M 115.871094 203.371094 " fill-opacity="1" fill-rule="nonzero"/></g></g></g><g clip-path="url(#bfa46c7919)"><g clip-path="url(#21d17debc4)"><g clip-path="url(#ef07648562)"><path fill="#ffffff" d="M 120.550781 205.546875 C 144.050781 207.84375 161.164062 229.527344 161.164062 229.527344 C 161.164062 229.527344 140.183594 247.503906 116.652344 245.238281 C 93.121094 242.976562 76.035156 221.257812 76.035156 221.257812 C 76.035156 221.257812 97.046875 203.253906 120.550781 205.546875 Z M 120.550781 205.546875 " fill-opacity="1" fill-rule="nonzero"/></g></g></g><g clip-path="url(#55c94512dd)"><g clip-path="url(#48c0fc98f1)"><g clip-path="url(#85b4f43ad3)"><g clip-path="url(#4fbb8ba284)"><path fill="#34ab53" d="M 120.25 208.445312 C 140.15625 210.382812 154.644531 228.746094 154.644531 228.746094 C 154.644531 228.746094 136.867188 243.976562 116.9375 242.066406 C 97.007812 240.15625 82.542969 221.765625 82.542969 221.765625 C 82.542969 221.765625 100.347656 206.507812 120.25 208.445312 Z M 120.25 208.445312 " fill-opacity="1" fill-rule="nonzero"/></g></g></g></g><g clip-path="url(#5202fae0c4)"><g clip-path="url(#cdc41fa6b3)"><g clip-path="url(#2b78da1eab)"><path fill="#fdfdfd" d="M 126.390625 216.152344 C 130.332031 216.546875 133.972656 217.136719 137.554688 218.054688 C 140.542969 218.816406 143.453125 219.792969 146.230469 221.132812 C 147.734375 221.859375 149.171875 222.699219 150.496094 223.722656 C 151.492188 224.492188 152.398438 225.355469 153.132812 226.386719 C 153.625 227.082031 154.011719 227.828125 154.238281 228.648438 C 154.644531 230.101562 154.46875 231.496094 153.808594 232.839844 C 153.304688 233.859375 152.597656 234.726562 151.765625 235.496094 C 151.515625 235.726562 151.21875 235.855469 150.875 235.882812 C 150.476562 235.914062 150.234375 235.621094 150.351562 235.238281 C 150.429688 234.984375 150.542969 234.746094 150.613281 234.488281 C 150.875 233.539062 150.816406 232.601562 150.5 231.675781 C 150.195312 230.773438 149.699219 229.980469 149.105469 229.246094 C 148.359375 228.320312 147.488281 227.527344 146.550781 226.800781 C 144.992188 225.597656 143.300781 224.621094 141.542969 223.753906 C 139.167969 222.582031 136.695312 221.65625 134.171875 220.875 C 130.871094 219.859375 127.507812 219.101562 124.097656 218.566406 C 120.839844 218.054688 117.5625 217.734375 114.265625 217.636719 C 110.519531 217.523438 106.785156 217.691406 103.074219 218.234375 C 101.710938 218.433594 100.359375 218.699219 99.003906 218.964844 C 98.765625 219.011719 98.53125 219.054688 98.285156 219.066406 C 98.238281 219.070312 98.183594 219.074219 98.136719 219.058594 C 98.074219 219.042969 98.050781 218.992188 98.101562 218.945312 C 98.148438 218.898438 98.203125 218.859375 98.261719 218.828125 C 98.457031 218.714844 98.671875 218.636719 98.882812 218.550781 C 100.167969 218.035156 101.496094 217.675781 102.839844 217.367188 C 105.433594 216.777344 108.058594 216.390625 110.703125 216.136719 C 114.875 215.742188 119.050781 215.683594 123.234375 215.914062 C 124.375 215.976562 125.515625 216.074219 126.390625 216.152344 Z M 126.390625 216.152344 " fill-opacity="1" fill-rule="nonzero"/></g></g></g><g clip-path="url(#e45c1448e9)"><g clip-path="url(#5ac1a4a810)"><g clip-path="url(#b2c13d914a)"><path fill="#68b940" d="M 225.53125 227.816406 C 189.617188 238.921875 151.136719 217.625 151.136719 217.625 C 151.136719 217.625 170.871094 178.316406 206.808594 167.144531 C 242.75 155.972656 281.207031 177.335938 281.207031 177.335938 C 281.207031 177.335938 261.449219 216.710938 225.53125 227.816406 Z M 225.53125 227.816406 " fill-opacity="1" fill-rule="nonzero"/></g></g></g><g clip-path="url(#ebdfdb1530)"><g clip-path="url(#9b5d79305a)"><g clip-path="url(#4e1695cf2e)"><path fill="#fffbf9" d="M 219.179688 230.339844 C 184.257812 241.136719 146.839844 220.429688 146.839844 220.429688 C 146.839844 220.429688 166.03125 182.207031 200.972656 171.34375 C 235.917969 160.484375 273.3125 181.253906 273.3125 181.253906 C 273.3125 181.253906 254.101562 219.539062 219.179688 230.339844 Z M 219.179688 230.339844 " fill-opacity="1" fill-rule="nonzero"/></g></g></g><g clip-path="url(#9d79e63fc7)"><g clip-path="url(#a1190b6372)"><g clip-path="url(#43badc43b5)"><g clip-path="url(#8d25be126c)"><path fill="#34ab53" d="M 217.03125 223.21875 C 189.566406 231.628906 160.09375 215.359375 160.09375 215.359375 C 160.09375 215.359375 175.140625 185.441406 202.625 176.976562 C 230.109375 168.515625 259.5625 184.839844 259.5625 184.839844 C 259.5625 184.839844 244.496094 214.808594 217.03125 223.21875 Z M 217.03125 223.21875 " fill-opacity="1" fill-rule="nonzero"/></g></g></g></g><g clip-path="url(#5655356666)"><g clip-path="url(#52ac660712)"><g transform="matrix(1, 0, 0, 1, 153, 176)"><g clip-path="url(#92b779589e)"><g clip-path="url(#5cb5e8c4bf)"><g clip-path="url(#2514102efb)"><g clip-path="url(#f1377c4dfc)"><path fill="#fffbf9" d="M 40.851562 12.808594 C 35.410156 14.519531 30.457031 16.417969 25.675781 18.761719 C 21.695312 20.71875 17.882812 22.945312 14.363281 25.652344 C 12.457031 27.117188 10.675781 28.71875 9.113281 30.546875 C 7.9375 31.929688 6.914062 33.410156 6.183594 35.078125 C 5.691406 36.199219 5.367188 37.363281 5.285156 38.589844 C 5.144531 40.757812 5.796875 42.671875 7.125 44.371094 C 8.132812 45.660156 9.382812 46.667969 10.78125 47.507812 C 11.203125 47.761719 11.660156 47.855469 12.148438 47.792969 C 12.71875 47.722656 12.980469 47.234375 12.699219 46.730469 C 12.511719 46.398438 12.285156 46.09375 12.109375 45.753906 C 11.464844 44.492188 11.273438 43.152344 11.441406 41.753906 C 11.605469 40.394531 12.074219 39.132812 12.695312 37.921875 C 13.476562 36.402344 14.46875 35.023438 15.574219 33.730469 C 17.417969 31.578125 19.511719 29.699219 21.738281 27.960938 C 24.738281 25.617188 27.945312 23.585938 31.277344 21.746094 C 35.628906 19.339844 40.140625 17.285156 44.789062 15.53125 C 49.230469 13.855469 53.75 12.441406 58.367188 11.335938 C 63.613281 10.078125 68.917969 9.210938 74.308594 8.890625 C 76.289062 8.769531 78.273438 8.746094 80.257812 8.722656 C 80.605469 8.71875 80.953125 8.710938 81.296875 8.65625 C 81.371094 8.644531 81.445312 8.632812 81.511719 8.601562 C 81.59375 8.558594 81.605469 8.480469 81.523438 8.425781 C 81.445312 8.375 81.355469 8.339844 81.265625 8.3125 C 80.953125 8.210938 80.628906 8.164062 80.304688 8.105469 C 78.347656 7.753906 76.367188 7.636719 74.382812 7.597656 C 70.558594 7.527344 66.746094 7.753906 62.945312 8.175781 C 56.953125 8.84375 51.050781 9.988281 45.226562 11.542969 C 43.636719 11.964844 42.058594 12.4375 40.851562 12.808594 Z M 40.851562 12.808594 " fill-opacity="1" fill-rule="nonzero"/></g></g></g></g></g></g></g><g clip-path="url(#773ed36d1b)"><g clip-path="url(#5c04a7abc4)"><g clip-path="url(#c56726d7ef)"><path fill="#68b940" d="M 106.011719 155.972656 C 144.769531 172.648438 162.121094 218.859375 162.121094 218.859375 C 162.121094 218.859375 116.636719 238.054688 77.8125 221.417969 C 38.984375 204.785156 21.703125 158.535156 21.703125 158.535156 C 21.703125 158.535156 67.253906 139.296875 106.011719 155.972656 Z M 106.011719 155.972656 " fill-opacity="1" fill-rule="nonzero"/></g></g></g><g clip-path="url(#3d290cb80b)"><g clip-path="url(#2bb189ee57)"><g clip-path="url(#e77736bac8)"><path fill="#fffbf9" d="M 112.746094 161.179688 C 150.289062 177.328125 167.09375 222.085938 167.09375 222.085938 C 167.09375 222.085938 123.039062 240.679688 85.433594 224.570312 C 47.828125 208.457031 31.089844 163.660156 31.089844 163.660156 C 31.089844 163.660156 75.207031 145.027344 112.746094 161.179688 Z M 112.746094 161.179688 " fill-opacity="1" fill-rule="nonzero"/></g></g></g><g clip-path="url(#05c8cb1d96)"><g clip-path="url(#4d4ed87af6)"><g clip-path="url(#c2c4406977)"><g clip-path="url(#9320e886b3)"><path fill="#34ab53" d="M 110.222656 166.421875 C 139.734375 179.070312 152.90625 214.214844 152.90625 214.214844 C 152.90625 214.214844 118.242188 228.859375 88.679688 216.238281 C 59.117188 203.617188 45.996094 168.445312 45.996094 168.445312 C 45.996094 168.445312 80.710938 153.769531 110.222656 166.421875 Z M 110.222656 166.421875 " fill-opacity="1" fill-rule="nonzero"/></g></g></g></g><g clip-path="url(#b311d8258c)"><g clip-path="url(#c217defa8d)"><g clip-path="url(#d3a085636d)"><path fill="#fffbf9" d="M 115.914062 180.800781 C 121.789062 183.34375 127.101562 186.035156 132.164062 189.207031 C 136.382812 191.851562 140.382812 194.777344 144 198.210938 C 145.957031 200.066406 147.757812 202.058594 149.292969 204.285156 C 150.445312 205.960938 151.417969 207.734375 152.039062 209.683594 C 152.457031 210.992188 152.6875 212.328125 152.636719 213.707031 C 152.542969 216.140625 151.589844 218.203125 149.914062 219.945312 C 148.636719 221.269531 147.125 222.253906 145.46875 223.027344 C 144.964844 223.261719 144.445312 223.3125 143.90625 223.1875 C 143.277344 223.042969 143.042969 222.464844 143.417969 221.9375 C 143.660156 221.585938 143.953125 221.273438 144.1875 220.914062 C 145.054688 219.578125 145.421875 218.109375 145.394531 216.527344 C 145.371094 214.988281 144.996094 213.527344 144.441406 212.101562 C 143.746094 210.3125 142.796875 208.664062 141.710938 207.085938 C 139.902344 204.472656 137.78125 202.132812 135.496094 199.933594 C 132.417969 196.96875 129.070312 194.328125 125.566406 191.886719 C 120.988281 188.699219 116.1875 185.882812 111.199219 183.386719 C 106.4375 181 101.550781 178.898438 96.527344 177.125 C 90.8125 175.113281 84.988281 173.535156 79.007812 172.550781 C 76.8125 172.1875 74.597656 171.933594 72.386719 171.675781 C 72 171.628906 71.609375 171.582031 71.230469 171.480469 C 71.152344 171.460938 71.070312 171.4375 71 171.394531 C 70.914062 171.335938 70.90625 171.25 71.007812 171.199219 C 71.101562 171.152344 71.207031 171.121094 71.308594 171.101562 C 71.667969 171.023438 72.035156 171.007812 72.402344 170.980469 C 74.628906 170.816406 76.855469 170.914062 79.074219 171.101562 C 83.355469 171.464844 87.585938 172.15625 91.777344 173.070312 C 98.390625 174.511719 104.851562 176.46875 111.171875 178.878906 C 112.898438 179.539062 114.609375 180.246094 115.914062 180.800781 Z M 115.914062 180.800781 " fill-opacity="1" fill-rule="nonzero"/></g></g></g></g></g><g clip-path="url(#048eb6cfb1)"><g clip-path="url(#616721704a)"><g clip-path="url(#91feb47769)"><g clip-path="url(#12b50a57b2)"><path fill="url(#53d157a0db)" d="M 538.621094 121.03125 L 447.078125 23.699219 L 349.683594 115.183594 L 441.226562 212.515625 Z M 538.621094 121.03125 " fill-rule="nonzero"/></g></g></g></g><g clip-path="url(#8fbdfcf17b)"><g clip-path="url(#516ebd4dda)"><g clip-path="url(#8cd9337137)"><g clip-path="url(#2c16d5e6ad)"><path fill="url(#f5ca5d4451)" d="M 291.808594 134.15625 L 356.242188 65.644531 L 424.796875 130.042969 L 360.363281 198.554688 Z M 291.808594 134.15625 " fill-rule="nonzero"/></g></g></g></g><g transform="matrix(1, 0, 0, 1, 314, 110)"><g clip-path="url(#a6b0a02eae)"><g fill="#fffffa" fill-opacity="1"><g transform="translate(0.692445, 202.892873)"><g><path d="M 6.0625 -142.171875 C 4.25 -143.429688 3.691406 -145.242188 4.390625 -147.609375 C 5.085938 -149.972656 6.484375 -151.15625 8.578125 -151.15625 L 128.578125 -151.15625 C 130.535156 -151.15625 132.242188 -150.597656 133.703125 -149.484375 C 135.171875 -148.367188 136.113281 -146.835938 136.53125 -144.890625 C 137.226562 -142.097656 138.03125 -138.75 138.9375 -134.84375 C 139.84375 -130.945312 140.570312 -127.117188 141.125 -123.359375 C 141.539062 -120.429688 141.085938 -118.234375 139.765625 -116.765625 C 138.441406 -115.304688 136.804688 -114.578125 134.859375 -114.578125 C 131.785156 -114.578125 129.066406 -116.25 126.703125 -119.59375 C 124.890625 -122.519531 123.003906 -125.445312 121.046875 -128.375 C 119.097656 -131.300781 116.273438 -133.738281 112.578125 -135.6875 C 108.890625 -137.644531 103.421875 -138.625 96.171875 -138.625 L 73.390625 -138.625 C 71.578125 -138.625 70.078125 -138.066406 68.890625 -136.953125 C 67.703125 -135.835938 67.109375 -134.300781 67.109375 -132.34375 L 67.109375 -84.671875 L 82.171875 -84.671875 C 87.609375 -84.671875 91.789062 -85.265625 94.71875 -86.453125 C 97.644531 -87.640625 99.769531 -89.140625 101.09375 -90.953125 C 102.414062 -92.765625 103.390625 -94.578125 104.015625 -96.390625 C 104.640625 -98.203125 105.40625 -99.734375 106.3125 -100.984375 C 107.21875 -102.234375 108.648438 -102.929688 110.609375 -103.078125 C 112.835938 -103.210938 114.578125 -101.609375 115.828125 -98.265625 C 117.085938 -94.921875 117.851562 -90.804688 118.125 -85.921875 C 118.40625 -81.046875 118.300781 -76.203125 117.8125 -71.390625 C 117.320312 -66.585938 116.378906 -62.582031 114.984375 -59.375 C 113.597656 -56.164062 111.789062 -54.632812 109.5625 -54.78125 C 107.601562 -54.914062 106.273438 -55.609375 105.578125 -56.859375 C 104.878906 -58.117188 104.25 -59.617188 103.6875 -61.359375 C 103.132812 -63.109375 102.195312 -64.816406 100.875 -66.484375 C 99.550781 -68.160156 97.460938 -69.554688 94.609375 -70.671875 C 91.753906 -71.785156 87.609375 -72.34375 82.171875 -72.34375 L 67.109375 -72.34375 L 67.109375 -18.8125 C 67.109375 -17 67.703125 -15.5 68.890625 -14.3125 C 70.078125 -13.132812 71.578125 -12.546875 73.390625 -12.546875 L 100.359375 -12.546875 C 107.609375 -12.546875 113.078125 -13.519531 116.765625 -15.46875 C 120.460938 -17.425781 123.285156 -19.867188 125.234375 -22.796875 C 127.191406 -25.722656 129.078125 -28.578125 130.890625 -31.359375 C 133.117188 -34.847656 135.90625 -36.59375 139.25 -36.59375 C 141.195312 -36.59375 142.832031 -35.820312 144.15625 -34.28125 C 145.476562 -32.75 145.863281 -30.59375 145.3125 -27.8125 C 144.75 -24.039062 144.015625 -20.171875 143.109375 -16.203125 C 142.203125 -12.234375 141.398438 -8.851562 140.703125 -6.0625 C 140.285156 -4.25 139.378906 -2.785156 137.984375 -1.671875 C 136.597656 -0.554688 134.925781 0 132.96875 0 L 8.578125 0 C 6.484375 0 5.085938 -1.179688 4.390625 -3.546875 C 3.691406 -5.921875 4.25 -7.734375 6.0625 -8.984375 C 7.039062 -9.679688 8.4375 -10.519531 10.25 -11.5 C 14.007812 -13.445312 15.890625 -16.441406 15.890625 -20.484375 L 15.890625 -130.671875 C 15.890625 -134.859375 14.007812 -137.859375 10.25 -139.671875 C 8.4375 -140.640625 7.039062 -141.472656 6.0625 -142.171875 Z M 6.0625 -142.171875 "/></g></g></g><g fill="#fffffa" fill-opacity="1"><g transform="translate(146.633995, 202.892873)"><g><path d="M 2.296875 -89.0625 C 0.484375 -90.175781 -0.0703125 -91.914062 0.625 -94.28125 C 1.320312 -96.65625 2.785156 -97.84375 5.015625 -97.84375 L 67.734375 -97.84375 C 69.828125 -97.84375 71.222656 -96.65625 71.921875 -94.28125 C 72.617188 -91.914062 72.0625 -90.175781 70.25 -89.0625 C 69.6875 -88.644531 69.160156 -88.257812 68.671875 -87.90625 C 68.191406 -87.5625 67.671875 -87.179688 67.109375 -86.765625 C 63.347656 -84.398438 62.304688 -81.40625 63.984375 -77.78125 L 85.296875 -24.671875 L 107.46875 -75.265625 L 107.25 -75.265625 L 108.296875 -77.984375 C 109.835938 -81.609375 108.796875 -84.535156 105.171875 -86.765625 C 104.609375 -87.179688 104.082031 -87.5625 103.59375 -87.90625 C 103.101562 -88.257812 102.582031 -88.644531 102.03125 -89.0625 C 100.21875 -90.175781 99.660156 -91.914062 100.359375 -94.28125 C 101.054688 -96.65625 102.445312 -97.84375 104.53125 -97.84375 L 131.515625 -97.84375 C 133.742188 -97.84375 135.207031 -96.65625 135.90625 -94.28125 C 136.601562 -91.914062 136.046875 -90.175781 134.234375 -89.0625 C 132.835938 -87.945312 131.507812 -87.113281 130.25 -86.5625 C 128.582031 -85.582031 127.015625 -84.289062 125.546875 -82.6875 C 124.085938 -81.082031 123.007812 -79.515625 122.3125 -77.984375 L 90.109375 -5.859375 C 88.441406 -1.953125 85.515625 0 81.328125 0 L 55.40625 0 C 51.082031 0 48.085938 -1.953125 46.421875 -5.859375 L 14.640625 -77.984375 C 12.960938 -81.742188 10.3125 -84.53125 6.6875 -86.34375 C 5.851562 -86.757812 5.085938 -87.175781 4.390625 -87.59375 C 3.691406 -88.019531 2.992188 -88.507812 2.296875 -89.0625 Z M 2.296875 -89.0625 "/></g></g></g><g fill="#fffffa" fill-opacity="1"><g transform="translate(277.730492, 202.892873)"><g><path d="M 2.515625 -48.921875 C 2.234375 -60.210938 4.738281 -69.722656 10.03125 -77.453125 C 15.332031 -85.191406 22.582031 -91.015625 31.78125 -94.921875 C 40.976562 -98.828125 51.363281 -100.78125 62.9375 -100.78125 C 72.6875 -100.78125 81.1875 -99.382812 88.4375 -96.59375 C 95.6875 -93.800781 101.472656 -90.070312 105.796875 -85.40625 C 110.117188 -80.738281 112.765625 -75.546875 113.734375 -69.828125 C 114.710938 -63.835938 113.597656 -58.71875 110.390625 -54.46875 C 107.179688 -50.21875 102.71875 -46.695312 97 -43.90625 C 91.289062 -41.113281 85.125 -39.054688 78.5 -37.734375 C 71.882812 -36.410156 65.71875 -35.75 60 -35.75 C 56.375 -35.75 53.171875 -35.957031 50.390625 -36.375 C 53.316406 -28.707031 57.113281 -23.234375 61.78125 -19.953125 C 66.445312 -16.679688 71.78125 -14.976562 77.78125 -14.84375 C 84.332031 -14.84375 89.976562 -16.582031 94.71875 -20.0625 C 99.457031 -23.550781 102.519531 -28.570312 103.90625 -35.125 C 105.019531 -39.726562 107.53125 -41.816406 111.4375 -41.390625 C 115.34375 -40.835938 116.875 -38.125 116.03125 -33.25 C 113.382812 -20.425781 107.113281 -11.191406 97.21875 -5.546875 C 87.320312 0.0976562 74.914062 2.921875 60 2.921875 C 42.71875 2.921875 28.921875 -1.5 18.609375 -10.34375 C 8.296875 -19.195312 2.929688 -32.054688 2.515625 -48.921875 Z M 57.078125 -88.65625 C 54.015625 -88.09375 51.472656 -85.859375 49.453125 -81.953125 C 47.429688 -78.054688 46.207031 -73.039062 45.78125 -66.90625 C 45.363281 -60.769531 45.921875 -54.078125 47.453125 -46.828125 C 50.660156 -46.554688 54.179688 -46.628906 58.015625 -47.046875 C 61.847656 -47.460938 65.332031 -48.539062 68.46875 -50.28125 C 71.601562 -52.019531 73.660156 -54.632812 74.640625 -58.125 C 76.171875 -63.414062 76.238281 -68.535156 74.84375 -73.484375 C 73.457031 -78.429688 71.160156 -82.40625 67.953125 -85.40625 C 64.742188 -88.40625 61.117188 -89.488281 57.078125 -88.65625 Z M 57.078125 -88.65625 "/></g></g></g><g fill="#fffffa" fill-opacity="1"><g transform="translate(399.836324, 202.892873)"><g><path d="M 5.234375 -81.953125 C 3.691406 -82.097656 2.570312 -82.832031 1.875 -84.15625 C 1.1875 -85.476562 0.976562 -86.90625 1.25 -88.4375 C 1.53125 -89.96875 2.367188 -91.082031 3.765625 -91.78125 C 8.503906 -94.570312 14.078125 -96.734375 20.484375 -98.265625 C 26.898438 -99.796875 33.101562 -100.5625 39.09375 -100.5625 C 43.28125 -100.5625 46.941406 -100.210938 50.078125 -99.515625 C 53.210938 -98.816406 55.71875 -97.316406 57.59375 -95.015625 C 59.476562 -92.722656 60.5625 -89.140625 60.84375 -84.265625 C 63.070312 -88.160156 66.238281 -91.675781 70.34375 -94.8125 C 74.457031 -97.945312 79.789062 -99.9375 86.34375 -100.78125 C 95.96875 -102.03125 104.332031 -101.4375 111.4375 -99 C 118.550781 -96.5625 124.09375 -92.972656 128.0625 -88.234375 C 132.03125 -83.492188 133.945312 -78.265625 133.8125 -72.546875 C 133.664062 -66.691406 131.429688 -61.773438 127.109375 -57.796875 C 122.796875 -53.828125 116.175781 -52.265625 107.25 -53.109375 C 102.507812 -53.523438 98.957031 -54.671875 96.59375 -56.546875 C 94.226562 -58.429688 92.695312 -60.734375 92 -63.453125 C 91.300781 -66.171875 90.914062 -68.957031 90.84375 -71.8125 C 90.769531 -74.675781 90.695312 -77.359375 90.625 -79.859375 C 90.5625 -82.367188 90.039062 -84.390625 89.0625 -85.921875 C 88.09375 -87.460938 86.144531 -88.160156 83.21875 -88.015625 C 79.726562 -87.878906 76.832031 -86.660156 74.53125 -84.359375 C 72.238281 -82.054688 70.425781 -79.160156 69.09375 -75.671875 C 67.769531 -72.191406 66.828125 -68.601562 66.265625 -64.90625 C 65.710938 -61.21875 65.4375 -57.910156 65.4375 -54.984375 L 65.4375 -20.484375 C 65.4375 -18.671875 65.957031 -16.960938 67 -15.359375 C 68.050781 -13.765625 69.34375 -12.410156 70.875 -11.296875 C 71.570312 -11.015625 72.195312 -10.664062 72.75 -10.25 C 73.3125 -9.832031 73.875 -9.410156 74.4375 -8.984375 C 76.382812 -7.734375 76.972656 -5.921875 76.203125 -3.546875 C 75.441406 -1.179688 73.945312 0 71.71875 0 L 11.921875 0 C 9.828125 0 8.394531 -1.179688 7.625 -3.546875 C 6.863281 -5.921875 7.390625 -7.734375 9.203125 -8.984375 C 9.898438 -9.410156 10.59375 -9.832031 11.28125 -10.25 C 11.976562 -10.664062 12.675781 -11.082031 13.375 -11.5 C 17.144531 -13.3125 19.03125 -16.304688 19.03125 -20.484375 L 19.03125 -78.40625 C 19.03125 -80.070312 18.578125 -81.179688 17.671875 -81.734375 C 16.765625 -82.296875 15.546875 -82.578125 14.015625 -82.578125 C 12.617188 -82.578125 11.148438 -82.472656 9.609375 -82.265625 C 8.078125 -82.054688 6.617188 -81.953125 5.234375 -81.953125 Z M 5.234375 -81.953125 "/></g></g></g><g fill="#fffffa" fill-opacity="1"><g transform="translate(527.796521, 202.892873)"><g><path d="M 33.25 -17.359375 C 23.625 -20.703125 16.09375 -25.648438 10.65625 -32.203125 C 5.226562 -38.753906 2.515625 -46.90625 2.515625 -56.65625 C 2.515625 -66.28125 5.125 -74.363281 10.34375 -80.90625 C 15.570312 -87.457031 22.890625 -92.40625 32.296875 -95.75 C 41.710938 -99.101562 52.691406 -100.78125 65.234375 -100.78125 C 76.378906 -102.03125 85.15625 -104.710938 91.5625 -108.828125 C 97.976562 -112.941406 103.554688 -117.644531 108.296875 -122.9375 C 109.972656 -125.03125 111.992188 -126.078125 114.359375 -126.078125 C 117.285156 -126.078125 119.863281 -124.613281 122.09375 -121.6875 C 124.332031 -118.757812 125.796875 -115.304688 126.484375 -111.328125 C 127.179688 -107.359375 126.488281 -103.769531 124.40625 -100.5625 C 123.144531 -98.476562 121.085938 -97.117188 118.234375 -96.484375 C 115.378906 -95.859375 112.273438 -95.578125 108.921875 -95.640625 C 105.578125 -95.710938 102.304688 -95.75 99.109375 -95.75 C 108.160156 -92.550781 115.226562 -87.707031 120.3125 -81.21875 C 125.40625 -74.738281 127.953125 -66.550781 127.953125 -56.65625 C 127.953125 -46.757812 125.335938 -38.535156 120.109375 -31.984375 C 114.890625 -25.429688 107.609375 -20.585938 98.265625 -17.453125 C 88.929688 -14.316406 77.921875 -12.75 65.234375 -12.75 C 63.421875 -12.75 61.609375 -12.785156 59.796875 -12.859375 C 57.984375 -12.929688 56.238281 -13.035156 54.5625 -13.171875 C 50.664062 -12.335938 47.148438 -10.875 44.015625 -8.78125 C 40.878906 -6.6875 39.9375 -4.25 41.1875 -1.46875 C 41.882812 0.207031 44.1875 1.046875 48.09375 1.046875 C 51.71875 1.046875 56.28125 0.488281 61.78125 -0.625 C 67.289062 -1.738281 73.210938 -2.816406 79.546875 -3.859375 C 85.890625 -4.910156 92.0625 -5.4375 98.0625 -5.4375 C 105.164062 -5.4375 111.570312 -4.179688 117.28125 -1.671875 C 123 0.835938 126.835938 5.644531 128.796875 12.75 C 130.191406 17.488281 130.363281 22.332031 129.3125 27.28125 C 128.269531 32.226562 125.863281 36.757812 122.09375 40.875 C 118.332031 44.988281 113.070312 48.296875 106.3125 50.796875 C 99.550781 53.304688 91.15625 54.5625 81.125 54.5625 C 77.914062 54.5625 75.613281 53.796875 74.21875 52.265625 C 72.820312 50.734375 72.296875 49.203125 72.640625 47.671875 C 72.992188 46.140625 74.148438 45.375 76.109375 45.375 C 79.035156 45.226562 82.445312 44.945312 86.34375 44.53125 C 90.25 44.113281 93.941406 43.414062 97.421875 42.4375 C 100.910156 41.46875 103.664062 40.144531 105.6875 38.46875 C 107.707031 36.800781 108.300781 34.640625 107.46875 31.984375 C 106.769531 29.753906 104.609375 28.640625 100.984375 28.640625 C 97.078125 28.640625 91.742188 29.578125 84.984375 31.453125 C 78.222656 33.335938 70.59375 35.1875 62.09375 37 C 53.59375 38.8125 44.671875 39.648438 35.328125 39.515625 C 26.410156 39.234375 19.195312 36.757812 13.6875 32.09375 C 8.1875 27.425781 5.296875 21.1875 5.015625 13.375 C 4.878906 6.40625 7.144531 0.273438 11.8125 -5.015625 C 16.476562 -10.316406 23.625 -14.429688 33.25 -17.359375 Z M 57.921875 -90.53125 C 54.566406 -90.113281 52.226562 -88.753906 50.90625 -86.453125 C 49.582031 -84.148438 49.164062 -80.523438 49.65625 -75.578125 C 50.144531 -70.628906 51.296875 -63.835938 53.109375 -55.203125 C 55.054688 -46.554688 56.832031 -39.789062 58.4375 -34.90625 C 60.039062 -30.03125 61.921875 -26.6875 64.078125 -24.875 C 66.242188 -23.0625 69.066406 -22.367188 72.546875 -22.796875 C 76.035156 -23.347656 78.40625 -24.738281 79.65625 -26.96875 C 80.914062 -29.195312 81.300781 -32.820312 80.8125 -37.84375 C 80.320312 -42.863281 79.101562 -49.691406 77.15625 -58.328125 C 75.34375 -66.972656 73.597656 -73.695312 71.921875 -78.5 C 70.242188 -83.3125 68.359375 -86.625 66.265625 -88.4375 C 64.179688 -90.25 61.398438 -90.945312 57.921875 -90.53125 Z M 57.921875 -90.53125 "/></g></g></g><g fill="#fffffa" fill-opacity="1"><g transform="translate(660.983879, 202.892873)"><g><path d="M 5.234375 -81.953125 C 3.691406 -82.097656 2.570312 -82.832031 1.875 -84.15625 C 1.1875 -85.476562 0.976562 -86.90625 1.25 -88.4375 C 1.53125 -89.96875 2.367188 -91.082031 3.765625 -91.78125 C 8.503906 -94.570312 14.078125 -96.734375 20.484375 -98.265625 C 26.898438 -99.796875 33.101562 -100.5625 39.09375 -100.5625 C 43.28125 -100.5625 46.941406 -100.210938 50.078125 -99.515625 C 53.210938 -98.816406 55.71875 -97.316406 57.59375 -95.015625 C 59.476562 -92.722656 60.5625 -89.140625 60.84375 -84.265625 C 63.070312 -88.160156 66.238281 -91.675781 70.34375 -94.8125 C 74.457031 -97.945312 79.789062 -99.9375 86.34375 -100.78125 C 95.96875 -102.03125 104.332031 -101.4375 111.4375 -99 C 118.550781 -96.5625 124.09375 -92.972656 128.0625 -88.234375 C 132.03125 -83.492188 133.945312 -78.265625 133.8125 -72.546875 C 133.664062 -66.691406 131.429688 -61.773438 127.109375 -57.796875 C 122.796875 -53.828125 116.175781 -52.265625 107.25 -53.109375 C 102.507812 -53.523438 98.957031 -54.671875 96.59375 -56.546875 C 94.226562 -58.429688 92.695312 -60.734375 92 -63.453125 C 91.300781 -66.171875 90.914062 -68.957031 90.84375 -71.8125 C 90.769531 -74.675781 90.695312 -77.359375 90.625 -79.859375 C 90.5625 -82.367188 90.039062 -84.390625 89.0625 -85.921875 C 88.09375 -87.460938 86.144531 -88.160156 83.21875 -88.015625 C 79.726562 -87.878906 76.832031 -86.660156 74.53125 -84.359375 C 72.238281 -82.054688 70.425781 -79.160156 69.09375 -75.671875 C 67.769531 -72.191406 66.828125 -68.601562 66.265625 -64.90625 C 65.710938 -61.21875 65.4375 -57.910156 65.4375 -54.984375 L 65.4375 -20.484375 C 65.4375 -18.671875 65.957031 -16.960938 67 -15.359375 C 68.050781 -13.765625 69.34375 -12.410156 70.875 -11.296875 C 71.570312 -11.015625 72.195312 -10.664062 72.75 -10.25 C 73.3125 -9.832031 73.875 -9.410156 74.4375 -8.984375 C 76.382812 -7.734375 76.972656 -5.921875 76.203125 -3.546875 C 75.441406 -1.179688 73.945312 0 71.71875 0 L 11.921875 0 C 9.828125 0 8.394531 -1.179688 7.625 -3.546875 C 6.863281 -5.921875 7.390625 -7.734375 9.203125 -8.984375 C 9.898438 -9.410156 10.59375 -9.832031 11.28125 -10.25 C 11.976562 -10.664062 12.675781 -11.082031 13.375 -11.5 C 17.144531 -13.3125 19.03125 -16.304688 19.03125 -20.484375 L 19.03125 -78.40625 C 19.03125 -80.070312 18.578125 -81.179688 17.671875 -81.734375 C 16.765625 -82.296875 15.546875 -82.578125 14.015625 -82.578125 C 12.617188 -82.578125 11.148438 -82.472656 9.609375 -82.265625 C 8.078125 -82.054688 6.617188 -81.953125 5.234375 -81.953125 Z M 5.234375 -81.953125 "/></g></g></g><g fill="#fffffa" fill-opacity="1"><g transform="translate(800.443754, 202.892873)"><g><path d="M 2.515625 -48.921875 C 2.234375 -60.210938 4.738281 -69.722656 10.03125 -77.453125 C 15.332031 -85.191406 22.582031 -91.015625 31.78125 -94.921875 C 40.976562 -98.828125 51.363281 -100.78125 62.9375 -100.78125 C 72.6875 -100.78125 81.1875 -99.382812 88.4375 -96.59375 C 95.6875 -93.800781 101.472656 -90.070312 105.796875 -85.40625 C 110.117188 -80.738281 112.765625 -75.546875 113.734375 -69.828125 C 114.710938 -63.835938 113.597656 -58.71875 110.390625 -54.46875 C 107.179688 -50.21875 102.71875 -46.695312 97 -43.90625 C 91.289062 -41.113281 85.125 -39.054688 78.5 -37.734375 C 71.882812 -36.410156 65.71875 -35.75 60 -35.75 C 56.375 -35.75 53.171875 -35.957031 50.390625 -36.375 C 53.316406 -28.707031 57.113281 -23.234375 61.78125 -19.953125 C 66.445312 -16.679688 71.78125 -14.976562 77.78125 -14.84375 C 84.332031 -14.84375 89.976562 -16.582031 94.71875 -20.0625 C 99.457031 -23.550781 102.519531 -28.570312 103.90625 -35.125 C 105.019531 -39.726562 107.53125 -41.816406 111.4375 -41.390625 C 115.34375 -40.835938 116.875 -38.125 116.03125 -33.25 C 113.382812 -20.425781 107.113281 -11.191406 97.21875 -5.546875 C 87.320312 0.0976562 74.914062 2.921875 60 2.921875 C 42.71875 2.921875 28.921875 -1.5 18.609375 -10.34375 C 8.296875 -19.195312 2.929688 -32.054688 2.515625 -48.921875 Z M 57.078125 -88.65625 C 54.015625 -88.09375 51.472656 -85.859375 49.453125 -81.953125 C 47.429688 -78.054688 46.207031 -73.039062 45.78125 -66.90625 C 45.363281 -60.769531 45.921875 -54.078125 47.453125 -46.828125 C 50.660156 -46.554688 54.179688 -46.628906 58.015625 -47.046875 C 61.847656 -47.460938 65.332031 -48.539062 68.46875 -50.28125 C 71.601562 -52.019531 73.660156 -54.632812 74.640625 -58.125 C 76.171875 -63.414062 76.238281 -68.535156 74.84375 -73.484375 C 73.457031 -78.429688 71.160156 -82.40625 67.953125 -85.40625 C 64.742188 -88.40625 61.117188 -89.488281 57.078125 -88.65625 Z M 57.078125 -88.65625 "/></g></g></g><g fill="#fffffa" fill-opacity="1"><g transform="translate(926.731305, 202.892873)"><g><path d="M 2.515625 -48.921875 C 2.234375 -60.210938 4.738281 -69.722656 10.03125 -77.453125 C 15.332031 -85.191406 22.582031 -91.015625 31.78125 -94.921875 C 40.976562 -98.828125 51.363281 -100.78125 62.9375 -100.78125 C 72.6875 -100.78125 81.1875 -99.382812 88.4375 -96.59375 C 95.6875 -93.800781 101.472656 -90.070312 105.796875 -85.40625 C 110.117188 -80.738281 112.765625 -75.546875 113.734375 -69.828125 C 114.710938 -63.835938 113.597656 -58.71875 110.390625 -54.46875 C 107.179688 -50.21875 102.71875 -46.695312 97 -43.90625 C 91.289062 -41.113281 85.125 -39.054688 78.5 -37.734375 C 71.882812 -36.410156 65.71875 -35.75 60 -35.75 C 56.375 -35.75 53.171875 -35.957031 50.390625 -36.375 C 53.316406 -28.707031 57.113281 -23.234375 61.78125 -19.953125 C 66.445312 -16.679688 71.78125 -14.976562 77.78125 -14.84375 C 84.332031 -14.84375 89.976562 -16.582031 94.71875 -20.0625 C 99.457031 -23.550781 102.519531 -28.570312 103.90625 -35.125 C 105.019531 -39.726562 107.53125 -41.816406 111.4375 -41.390625 C 115.34375 -40.835938 116.875 -38.125 116.03125 -33.25 C 113.382812 -20.425781 107.113281 -11.191406 97.21875 -5.546875 C 87.320312 0.0976562 74.914062 2.921875 60 2.921875 C 42.71875 2.921875 28.921875 -1.5 18.609375 -10.34375 C 8.296875 -19.195312 2.929688 -32.054688 2.515625 -48.921875 Z M 57.078125 -88.65625 C 54.015625 -88.09375 51.472656 -85.859375 49.453125 -81.953125 C 47.429688 -78.054688 46.207031 -73.039062 45.78125 -66.90625 C 45.363281 -60.769531 45.921875 -54.078125 47.453125 -46.828125 C 50.660156 -46.554688 54.179688 -46.628906 58.015625 -47.046875 C 61.847656 -47.460938 65.332031 -48.539062 68.46875 -50.28125 C 71.601562 -52.019531 73.660156 -54.632812 74.640625 -58.125 C 76.171875 -63.414062 76.238281 -68.535156 74.84375 -73.484375 C 73.457031 -78.429688 71.160156 -82.40625 67.953125 -85.40625 C 64.742188 -88.40625 61.117188 -89.488281 57.078125 -88.65625 Z M 57.078125 -88.65625 "/></g></g></g><g fill="#fffffa" fill-opacity="1"><g transform="translate(1048.837094, 202.892873)"><g><path d="M 5.234375 -81.953125 C 3.691406 -82.097656 2.570312 -82.832031 1.875 -84.15625 C 1.1875 -85.476562 0.976562 -86.90625 1.25 -88.4375 C 1.53125 -89.96875 2.367188 -91.082031 3.765625 -91.78125 C 8.503906 -94.570312 14.492188 -96.734375 21.734375 -98.265625 C 28.984375 -99.796875 35.957031 -100.5625 42.65625 -100.5625 C 47.8125 -100.5625 52.0625 -100.144531 55.40625 -99.3125 C 58.75 -98.476562 61.253906 -96.664062 62.921875 -93.875 C 64.597656 -91.082031 65.4375 -86.691406 65.4375 -80.703125 C 69.34375 -86.554688 74.46875 -91.328125 80.8125 -95.015625 C 87.15625 -98.710938 94.019531 -100.632812 101.40625 -100.78125 C 114.644531 -101.050781 124.191406 -98.644531 130.046875 -93.5625 C 135.898438 -88.476562 138.828125 -80.148438 138.828125 -68.578125 L 138.828125 -20.484375 C 138.828125 -16.585938 140.640625 -13.523438 144.265625 -11.296875 C 144.960938 -11.015625 145.585938 -10.664062 146.140625 -10.25 C 146.703125 -9.832031 147.257812 -9.410156 147.8125 -8.984375 C 149.625 -7.734375 150.179688 -5.921875 149.484375 -3.546875 C 148.796875 -1.179688 147.332031 0 145.09375 0 L 110.609375 0 C 105.585938 0 101.71875 -0.972656 99 -2.921875 C 96.28125 -4.878906 94.429688 -7.457031 93.453125 -10.65625 C 92.484375 -13.863281 91.925781 -17.210938 91.78125 -20.703125 L 92 -54.5625 C 92 -58.332031 91.960938 -62.097656 91.890625 -65.859375 C 91.816406 -69.617188 91.148438 -72.785156 89.890625 -75.359375 C 88.640625 -77.941406 86.34375 -79.164062 83 -79.03125 C 79.9375 -79.03125 77.148438 -77.8125 74.640625 -75.375 C 72.128906 -72.9375 70.070312 -69.972656 68.46875 -66.484375 C 66.863281 -63.003906 65.851562 -59.453125 65.4375 -55.828125 L 65.4375 -20.484375 C 65.4375 -18.671875 65.957031 -16.960938 67 -15.359375 C 68.050781 -13.765625 69.34375 -12.410156 70.875 -11.296875 C 71.570312 -11.015625 72.195312 -10.664062 72.75 -10.25 C 73.3125 -9.832031 73.875 -9.410156 74.4375 -8.984375 C 76.382812 -7.734375 76.972656 -5.921875 76.203125 -3.546875 C 75.441406 -1.179688 73.945312 0 71.71875 0 L 11.921875 0 C 9.828125 0 8.394531 -1.179688 7.625 -3.546875 C 6.863281 -5.921875 7.390625 -7.734375 9.203125 -8.984375 C 9.898438 -9.410156 10.59375 -9.832031 11.28125 -10.25 C 11.976562 -10.664062 12.675781 -11.082031 13.375 -11.5 C 17.144531 -13.3125 19.03125 -16.304688 19.03125 -20.484375 L 19.03125 -78.40625 C 19.03125 -80.070312 18.578125 -81.179688 17.671875 -81.734375 C 16.765625 -82.296875 15.546875 -82.578125 14.015625 -82.578125 C 12.617188 -82.578125 11.148438 -82.472656 9.609375 -82.265625 C 8.078125 -82.054688 6.617188 -81.953125 5.234375 -81.953125 Z M 5.234375 -81.953125 "/></g></g></g></g></g><path stroke-linecap="butt" transform="matrix(0.75, 0, 0, 0.75, 986.009471, 331.450637)" fill="none" stroke-linejoin="miter" d="M -0.00221136 3.498109 L 705.940552 3.498109 " stroke="#68b940" stroke-width="7" stroke-opacity="1" stroke-miterlimit="4"/><path stroke-linecap="butt" transform="matrix(0.75, 0, 0, 0.75, 986.009471, 328.699544)" fill="none" stroke-linejoin="miter" d="M -0.00221136 3.499567 L 705.940552 3.499567 " stroke="#ffffff" stroke-width="7" stroke-opacity="1" stroke-miterlimit="4"/><path stroke-linecap="butt" transform="matrix(0.75, 0, 0, 0.75, 306.813314, 331.450637)" fill="none" stroke-linejoin="miter" d="M -0.0010847 3.498109 L 705.941679 3.498109 " stroke="#68b940" stroke-width="7" stroke-opacity="1" stroke-miterlimit="4"/><path stroke-linecap="butt" transform="matrix(0.75, 0, 0, 0.75, 306.813314, 328.699544)" fill="none" stroke-linejoin="miter" d="M -0.0010847 3.499567 L 705.941679 3.499567 " stroke="#ffffff" stroke-width="7" stroke-opacity="1" stroke-miterlimit="4"/></svg>