<svg xmlns="http://www.w3.org/2000/svg" xmlns:xlink="http://www.w3.org/1999/xlink" width="1080" zoomAndPan="magnify" viewBox="0 0 810 809.999993" height="1080" preserveAspectRatio="xMidYMid meet" version="1.0"><defs><clipPath id="23c9ca8c8a"><path d="M 405 0 C 181.324219 0 0 181.324219 0 405 C 0 628.675781 181.324219 810 405 810 C 628.675781 810 810 628.675781 810 405 C 810 181.324219 628.675781 0 405 0 Z M 405 0 " clip-rule="nonzero"/></clipPath><clipPath id="26fa9d6f19"><path d="M 0 0 L 810 0 L 810 810 L 0 810 Z M 0 0 " clip-rule="nonzero"/></clipPath><clipPath id="96634ec355"><path d="M 405 0 C 181.324219 0 0 181.324219 0 405 C 0 628.675781 181.324219 810 405 810 C 628.675781 810 810 628.675781 810 405 C 810 181.324219 628.675781 0 405 0 Z M 405 0 " clip-rule="nonzero"/></clipPath><clipPath id="b99d2f225e"><rect x="0" width="810" y="0" height="810"/></clipPath><clipPath id="252fd61170"><path d="M 36.085938 36.085938 L 773.914062 36.085938 L 773.914062 773.914062 L 36.085938 773.914062 Z M 36.085938 36.085938 " clip-rule="nonzero"/></clipPath><clipPath id="f6a45da320"><path d="M 405 36.085938 C 201.253906 36.085938 36.085938 201.253906 36.085938 405 C 36.085938 608.746094 201.253906 773.914062 405 773.914062 C 608.746094 773.914062 773.914062 608.746094 773.914062 405 C 773.914062 201.253906 608.746094 36.085938 405 36.085938 Z M 405 36.085938 " clip-rule="nonzero"/></clipPath><clipPath id="ee855ef52c"><path d="M 0.0859375 0.0859375 L 737.914062 0.0859375 L 737.914062 737.914062 L 0.0859375 737.914062 Z M 0.0859375 0.0859375 " clip-rule="nonzero"/></clipPath><clipPath id="7f95dad08e"><path d="M 369 0.0859375 C 165.253906 0.0859375 0.0859375 165.253906 0.0859375 369 C 0.0859375 572.746094 165.253906 737.914062 369 737.914062 C 572.746094 737.914062 737.914062 572.746094 737.914062 369 C 737.914062 165.253906 572.746094 0.0859375 369 0.0859375 Z M 369 0.0859375 " clip-rule="nonzero"/></clipPath><clipPath id="deae9ddb21"><rect x="0" width="738" y="0" height="738"/></clipPath><clipPath id="8913d5c57e"><path d="M 83.101562 83.101562 L 726.894531 83.101562 L 726.894531 726.894531 L 83.101562 726.894531 Z M 83.101562 83.101562 " clip-rule="nonzero"/></clipPath><clipPath id="be7e582501"><path d="M 405 83.101562 C 227.222656 83.101562 83.101562 227.222656 83.101562 405 C 83.101562 582.777344 227.222656 726.894531 405 726.894531 C 582.777344 726.894531 726.894531 582.777344 726.894531 405 C 726.894531 227.222656 582.777344 83.101562 405 83.101562 Z M 405 83.101562 " clip-rule="nonzero"/></clipPath><clipPath id="33986f85ca"><path d="M 0.101562 0.101562 L 643.894531 0.101562 L 643.894531 643.894531 L 0.101562 643.894531 Z M 0.101562 0.101562 " clip-rule="nonzero"/></clipPath><clipPath id="bb3894e0ac"><path d="M 322 0.101562 C 144.222656 0.101562 0.101562 144.222656 0.101562 322 C 0.101562 499.777344 144.222656 643.894531 322 643.894531 C 499.777344 643.894531 643.894531 499.777344 643.894531 322 C 643.894531 144.222656 499.777344 0.101562 322 0.101562 Z M 322 0.101562 " clip-rule="nonzero"/></clipPath><clipPath id="b86625a649"><rect x="0" width="644" y="0" height="644"/></clipPath><clipPath id="d6650de886"><path d="M 327 190 L 487 190 L 487 529 L 327 529 Z M 327 190 " clip-rule="nonzero"/></clipPath><clipPath id="776ba0500a"><path d="M 228.289062 391.886719 L 400.335938 177.992188 L 585.59375 327.003906 L 413.550781 540.898438 Z M 228.289062 391.886719 " clip-rule="nonzero"/></clipPath><clipPath id="9d08fc00a4"><path d="M 228.289062 391.886719 L 400.335938 177.992188 L 585.59375 327.003906 L 413.550781 540.898438 Z M 228.289062 391.886719 " clip-rule="nonzero"/></clipPath><clipPath id="d224495176"><path d="M 345 214 L 469 214 L 469 480 L 345 480 Z M 345 214 " clip-rule="nonzero"/></clipPath><clipPath id="cfc405bfaf"><path d="M 266.953125 372.082031 L 401.863281 204.355469 L 547.382812 321.402344 L 412.472656 489.128906 Z M 266.953125 372.082031 " clip-rule="nonzero"/></clipPath><clipPath id="3ebead33ee"><path d="M 266.953125 372.082031 L 401.863281 204.355469 L 547.382812 321.402344 L 412.472656 489.128906 Z M 266.953125 372.082031 " clip-rule="nonzero"/></clipPath><clipPath id="1d58a4d1a4"><path d="M 356 243 L 454 243 L 454 452 L 356 452 Z M 356 243 " clip-rule="nonzero"/></clipPath><clipPath id="e44cc2429d"><path d="M 295.484375 366.925781 L 401.246094 235.429688 L 515.207031 327.09375 L 409.441406 458.585938 Z M 295.484375 366.925781 " clip-rule="nonzero"/></clipPath><clipPath id="5cb30db73f"><path d="M 295.484375 366.925781 L 401.246094 235.429688 L 515.207031 327.09375 L 409.441406 458.585938 Z M 295.484375 366.925781 " clip-rule="nonzero"/></clipPath><clipPath id="602d50a532"><path d="M 295.484375 366.925781 L 401.246094 235.429688 L 515.207031 327.09375 L 409.441406 458.585938 Z M 295.484375 366.925781 " clip-rule="nonzero"/></clipPath><clipPath id="b70717228e"><path d="M 398 325 L 429 325 L 429 469 L 398 469 Z M 398 325 " clip-rule="nonzero"/></clipPath><clipPath id="956207b535"><path d="M 393.792969 467.773438 L 406.882812 325.878906 L 433.769531 328.359375 L 420.679688 470.253906 Z M 393.792969 467.773438 " clip-rule="nonzero"/></clipPath><clipPath id="0ab1ae5ded"><path d="M 393.792969 467.773438 L 406.882812 325.878906 L 433.769531 328.359375 L 420.679688 470.253906 Z M 393.792969 467.773438 " clip-rule="nonzero"/></clipPath><clipPath id="1e4c1010ea"><path d="M 393.792969 467.777344 L 406.90625 325.65625 L 433.71875 328.132812 L 420.605469 470.25 Z M 393.792969 467.777344 " clip-rule="nonzero"/></clipPath><clipPath id="4c5c757c5f"><path d="M 408 290 L 581 290 L 581 504 L 408 504 Z M 408 290 " clip-rule="nonzero"/></clipPath><clipPath id="24e9c380eb"><path d="M 362.726562 333.675781 L 576.035156 274.925781 L 627.015625 460.035156 L 413.707031 518.78125 Z M 362.726562 333.675781 " clip-rule="nonzero"/></clipPath><clipPath id="22f8901f98"><path d="M 362.726562 333.675781 L 576.035156 274.925781 L 627.015625 460.035156 L 413.707031 518.78125 Z M 362.726562 333.675781 " clip-rule="nonzero"/></clipPath><clipPath id="7d83dfcfcc"><path d="M 404 305 L 573 305 L 573 514 L 404 514 Z M 404 305 " clip-rule="nonzero"/></clipPath><clipPath id="cc6192d899"><path d="M 360.085938 347.871094 L 567.609375 290.71875 L 617.199219 470.765625 L 409.675781 527.917969 Z M 360.085938 347.871094 " clip-rule="nonzero"/></clipPath><clipPath id="a83e0ed3e0"><path d="M 360.085938 347.871094 L 567.609375 290.71875 L 617.199219 470.765625 L 409.675781 527.917969 Z M 360.085938 347.871094 " clip-rule="nonzero"/></clipPath><clipPath id="7875a0d609"><path d="M 421 327 L 553 327 L 553 490 L 421 490 Z M 421 327 " clip-rule="nonzero"/></clipPath><clipPath id="e10475987d"><path d="M 386.242188 360.371094 L 548.9375 315.566406 L 587.769531 456.566406 L 425.078125 501.371094 Z M 386.242188 360.371094 " clip-rule="nonzero"/></clipPath><clipPath id="db92a66510"><path d="M 386.242188 360.371094 L 548.9375 315.566406 L 587.769531 456.566406 L 425.078125 501.371094 Z M 386.242188 360.371094 " clip-rule="nonzero"/></clipPath><clipPath id="bb04c45452"><path d="M 386.242188 360.371094 L 548.9375 315.566406 L 587.769531 456.566406 L 425.078125 501.371094 Z M 386.242188 360.371094 " clip-rule="nonzero"/></clipPath><clipPath id="8f41ff1971"><path d="M 395 344 L 538 344 L 538 505 L 395 505 Z M 395 344 " clip-rule="nonzero"/></clipPath><clipPath id="157a2dc751"><path d="M 394.964844 474.5 L 498.460938 344.074219 L 537.824219 375.308594 L 434.328125 505.734375 Z M 394.964844 474.5 " clip-rule="nonzero"/></clipPath><clipPath id="3eec78b8f2"><path d="M 20 10 L 116 10 L 116 156 L 20 156 Z M 20 10 " clip-rule="nonzero"/></clipPath><clipPath id="857d8741b4"><path d="M -0.0351562 130.5 L 103.460938 0.0742188 L 142.824219 31.308594 L 39.328125 161.734375 Z M -0.0351562 130.5 " clip-rule="nonzero"/></clipPath><clipPath id="dd3220f517"><path d="M 39.199219 161.632812 L 142.695312 31.207031 L 103.332031 -0.0273438 L -0.164062 130.398438 Z M 39.199219 161.632812 " clip-rule="nonzero"/></clipPath><clipPath id="5da73f64cd"><rect x="0" width="143" y="0" height="161"/></clipPath><clipPath id="80bc8511ce"><path d="M 249 287 L 406 287 L 406 504 L 249 504 Z M 249 287 " clip-rule="nonzero"/></clipPath><clipPath id="6b2d167a44"><path d="M 232.550781 499.816406 L 237.851562 286.882812 L 423.042969 291.492188 L 417.742188 504.425781 Z M 232.550781 499.816406 " clip-rule="nonzero"/></clipPath><clipPath id="577f7369c6"><path d="M 232.550781 499.816406 L 237.851562 286.882812 L 423.042969 291.492188 L 417.742188 504.425781 Z M 232.550781 499.816406 " clip-rule="nonzero"/></clipPath><clipPath id="7e73d94103"><path d="M 258 303 L 411 303 L 411 514 L 258 514 Z M 258 303 " clip-rule="nonzero"/></clipPath><clipPath id="cee69f0adc"><path d="M 242.183594 509.207031 L 247.316406 303.019531 L 426.511719 307.480469 L 421.378906 513.667969 Z M 242.183594 509.207031 " clip-rule="nonzero"/></clipPath><clipPath id="e8d003751c"><path d="M 242.183594 509.207031 L 247.316406 303.019531 L 426.511719 307.480469 L 421.378906 513.667969 Z M 242.183594 509.207031 " clip-rule="nonzero"/></clipPath><clipPath id="4d0a4e999b"><path d="M 276 323 L 396 323 L 396 489 L 276 489 Z M 276 323 " clip-rule="nonzero"/></clipPath><clipPath id="802fe4d668"><path d="M 263.753906 485.5625 L 267.804688 322.863281 L 408.761719 326.371094 L 404.710938 489.070312 Z M 263.753906 485.5625 " clip-rule="nonzero"/></clipPath><clipPath id="c5b0e8146a"><path d="M 263.753906 485.5625 L 267.804688 322.863281 L 408.761719 326.371094 L 404.710938 489.070312 Z M 263.753906 485.5625 " clip-rule="nonzero"/></clipPath><clipPath id="fa3b8407b5"><path d="M 263.753906 485.5625 L 267.804688 322.863281 L 408.761719 326.371094 L 404.710938 489.070312 Z M 263.753906 485.5625 " clip-rule="nonzero"/></clipPath><clipPath id="a60303b77d"><path d="M 312 350 L 398 350 L 398 495 L 312 495 Z M 312 350 " clip-rule="nonzero"/></clipPath><clipPath id="7c7c223936"><path d="M 377.128906 501.132812 L 285.660156 369.25 L 325.101562 341.894531 L 416.574219 473.777344 Z M 377.128906 501.132812 " clip-rule="nonzero"/></clipPath><clipPath id="d32cbe52b4"><path d="M 377.128906 501.132812 L 285.660156 369.25 L 325.101562 341.894531 L 416.574219 473.777344 Z M 377.128906 501.132812 " clip-rule="nonzero"/></clipPath><clipPath id="7f356281b2"><path d="M 402 482 L 558 482 L 558 556 L 402 556 Z M 402 482 " clip-rule="nonzero"/></clipPath><clipPath id="d3ab645543"><path d="M 459.652344 438.066406 L 563.125 509.964844 L 500.640625 599.890625 L 397.167969 527.988281 Z M 459.652344 438.066406 " clip-rule="nonzero"/></clipPath><clipPath id="43949f81db"><path d="M 459.652344 438.066406 L 563.125 509.964844 L 500.640625 599.890625 L 397.167969 527.988281 Z M 459.652344 438.066406 " clip-rule="nonzero"/></clipPath><clipPath id="e01ebe4d11"><path d="M 401 487 L 543 487 L 543 553 L 401 553 Z M 401 487 " clip-rule="nonzero"/></clipPath><clipPath id="1582396d4e"><path d="M 453.640625 446.714844 L 547.261719 511.765625 L 490.769531 593.066406 L 397.148438 528.015625 Z M 453.640625 446.714844 " clip-rule="nonzero"/></clipPath><clipPath id="3ccbf4db51"><path d="M 453.640625 446.714844 L 547.261719 511.765625 L 490.769531 593.066406 L 397.148438 528.015625 Z M 453.640625 446.714844 " clip-rule="nonzero"/></clipPath><clipPath id="2f10af7d2a"><path d="M 412 492 L 532 492 L 532 548 L 412 548 Z M 412 492 " clip-rule="nonzero"/></clipPath><clipPath id="1e4abc48c8"><path d="M 456.542969 458.113281 L 535.378906 512.894531 L 487.875 581.257812 L 409.039062 526.480469 Z M 456.542969 458.113281 " clip-rule="nonzero"/></clipPath><clipPath id="252b8c8be3"><path d="M 456.542969 458.113281 L 535.378906 512.894531 L 487.875 581.257812 L 409.039062 526.480469 Z M 456.542969 458.113281 " clip-rule="nonzero"/></clipPath><clipPath id="5d2c65e84c"><path d="M 456.542969 458.113281 L 535.378906 512.894531 L 487.875 581.257812 L 409.039062 526.480469 Z M 456.542969 458.113281 " clip-rule="nonzero"/></clipPath><clipPath id="28a79c80f6"><path d="M 410 501 L 505 501 L 505 533 L 410 533 Z M 410 501 " clip-rule="nonzero"/></clipPath><clipPath id="1bb470990a"><path d="M 409.730469 503.601562 L 504.203125 501.332031 L 504.886719 529.824219 L 410.414062 532.09375 Z M 409.730469 503.601562 " clip-rule="nonzero"/></clipPath><clipPath id="9898b1f17e"><path d="M 0.160156 1 L 94.960938 1 L 94.960938 31 L 0.160156 31 Z M 0.160156 1 " clip-rule="nonzero"/></clipPath><clipPath id="511e58fcec"><path d="M -0.269531 2.601562 L 94.203125 0.332031 L 94.886719 28.824219 L 0.414062 31.09375 Z M -0.269531 2.601562 " clip-rule="nonzero"/></clipPath><clipPath id="2d0ca90947"><path d="M 0.417969 31.152344 L 94.890625 28.882812 L 94.207031 0.390625 L -0.265625 2.660156 Z M 0.417969 31.152344 " clip-rule="nonzero"/></clipPath><clipPath id="e75d834352"><rect x="0" width="95" y="0" height="32"/></clipPath><clipPath id="f3b5702c43"><path d="M 261 481 L 416 481 L 416 555 L 261 555 Z M 261 481 " clip-rule="nonzero"/></clipPath><clipPath id="d149751094"><path d="M 349.144531 600.0625 L 255.570312 516.808594 L 327.855469 435.5625 L 421.429688 518.816406 Z M 349.144531 600.0625 " clip-rule="nonzero"/></clipPath><clipPath id="9ca95e98c2"><path d="M 349.144531 600.0625 L 255.570312 516.808594 L 327.855469 435.5625 L 421.429688 518.816406 Z M 349.144531 600.0625 " clip-rule="nonzero"/></clipPath><clipPath id="8b3e51094e"><path d="M 276 485 L 416 485 L 416 551 L 276 551 Z M 276 485 " clip-rule="nonzero"/></clipPath><clipPath id="4620bb0958"><path d="M 356.09375 592.253906 L 271.488281 516.976562 L 336.792969 443.574219 L 421.402344 518.851562 Z M 356.09375 592.253906 " clip-rule="nonzero"/></clipPath><clipPath id="73403b800b"><path d="M 356.09375 592.253906 L 271.488281 516.976562 L 336.792969 443.574219 L 421.402344 518.851562 Z M 356.09375 592.253906 " clip-rule="nonzero"/></clipPath><clipPath id="99c1377c12"><path d="M 287 490 L 405 490 L 405 546 L 287 546 Z M 287 490 " clip-rule="nonzero"/></clipPath><clipPath id="be2b8718bc"><path d="M 354.585938 580.671875 L 283.425781 517.359375 L 338.265625 455.722656 L 409.425781 519.039062 Z M 354.585938 580.671875 " clip-rule="nonzero"/></clipPath><clipPath id="fa00bbb7bf"><path d="M 354.585938 580.671875 L 283.425781 517.359375 L 338.265625 455.722656 L 409.425781 519.039062 Z M 354.585938 580.671875 " clip-rule="nonzero"/></clipPath><clipPath id="6e062435bb"><path d="M 354.585938 580.671875 L 283.425781 517.359375 L 338.265625 455.722656 L 409.425781 519.039062 Z M 354.585938 580.671875 " clip-rule="nonzero"/></clipPath><clipPath id="f889986ba8"><path d="M 312 502 L 406 502 L 406 536 L 312 536 Z M 312 502 " clip-rule="nonzero"/></clipPath><clipPath id="c98f874979"><path d="M 404.558594 535.761719 L 310.492188 526.71875 L 313.21875 498.351562 L 407.285156 507.394531 Z M 404.558594 535.761719 " clip-rule="nonzero"/></clipPath><clipPath id="e371ad6c68"><path d="M 404.558594 535.761719 L 310.492188 526.71875 L 313.21875 498.351562 L 407.285156 507.394531 Z M 404.558594 535.761719 " clip-rule="nonzero"/></clipPath><clipPath id="2da03a66be"><path d="M 399 417 L 612 417 L 612 528 L 399 528 Z M 399 417 " clip-rule="nonzero"/></clipPath><clipPath id="e97e93500f"><path d="M 445.878906 369.332031 L 616.175781 427.640625 L 565.640625 575.230469 L 395.347656 516.921875 Z M 445.878906 369.332031 " clip-rule="nonzero"/></clipPath><clipPath id="0e3b5aa0d2"><path d="M 445.878906 369.332031 L 616.175781 427.640625 L 565.640625 575.230469 L 395.347656 516.921875 Z M 445.878906 369.332031 " clip-rule="nonzero"/></clipPath><clipPath id="f02d3fcd27"><path d="M 392 424 L 600 424 L 600 532 L 392 532 Z M 392 424 " clip-rule="nonzero"/></clipPath><clipPath id="9594002858"><path d="M 437.585938 377.675781 L 602.914062 434.28125 L 553.597656 578.320312 L 388.269531 521.714844 Z M 437.585938 377.675781 " clip-rule="nonzero"/></clipPath><clipPath id="617e2dcf54"><path d="M 437.585938 377.675781 L 602.914062 434.28125 L 553.597656 578.320312 L 388.269531 521.714844 Z M 437.585938 377.675781 " clip-rule="nonzero"/></clipPath><clipPath id="b20561d9d4"><path d="M 414 434 L 576 434 L 576 519 L 414 519 Z M 414 434 " clip-rule="nonzero"/></clipPath><clipPath id="79f0dd235b"><path d="M 449.449219 398.09375 L 579.300781 442.554688 L 540.671875 555.375 L 410.820312 510.914062 Z M 449.449219 398.09375 " clip-rule="nonzero"/></clipPath><clipPath id="e68b8d9439"><path d="M 449.449219 398.09375 L 579.300781 442.554688 L 540.671875 555.375 L 410.820312 510.914062 Z M 449.449219 398.09375 " clip-rule="nonzero"/></clipPath><clipPath id="bca93a0e41"><path d="M 449.449219 398.09375 L 579.300781 442.554688 L 540.671875 555.375 L 410.820312 510.914062 Z M 449.449219 398.09375 " clip-rule="nonzero"/></clipPath><clipPath id="30f594df9f"><path d="M 403 438 L 545 438 L 545 518 L 403 518 Z M 403 438 " clip-rule="nonzero"/></clipPath><clipPath id="574864af54"><path d="M 402.929688 478.902344 L 532.558594 438.605469 L 544.582031 477.277344 L 414.949219 517.578125 Z M 402.929688 478.902344 " clip-rule="nonzero"/></clipPath><clipPath id="d062c1f74f"><path d="M 8 11 L 133 11 L 133 78 L 8 78 Z M 8 11 " clip-rule="nonzero"/></clipPath><clipPath id="26fea8b596"><path d="M -0.0703125 40.902344 L 129.558594 0.605469 L 141.582031 39.277344 L 11.949219 79.578125 Z M -0.0703125 40.902344 " clip-rule="nonzero"/></clipPath><clipPath id="17d70bfc59"><path d="M 12.042969 79.867188 L 141.671875 39.570312 L 129.648438 0.894531 L 0.0195312 41.191406 Z M 12.042969 79.867188 " clip-rule="nonzero"/></clipPath><clipPath id="13abe8f4c7"><rect x="0" width="142" y="0" height="80"/></clipPath><clipPath id="0c2d640011"><path d="M 188 393 L 418 393 L 418 523 L 188 523 Z M 188 393 " clip-rule="nonzero"/></clipPath><clipPath id="02e2803a70"><path d="M 278.941406 589.722656 L 176.125 416.136719 L 327.121094 326.695312 L 429.941406 500.277344 Z M 278.941406 589.722656 " clip-rule="nonzero"/></clipPath><clipPath id="a273f60221"><path d="M 278.941406 589.722656 L 176.125 416.136719 L 327.121094 326.695312 L 429.941406 500.277344 Z M 278.941406 589.722656 " clip-rule="nonzero"/></clipPath><clipPath id="7fe7886615"><path d="M 203 402 L 426 402 L 426 528 L 203 528 Z M 203 402 " clip-rule="nonzero"/></clipPath><clipPath id="8a14dd0f7d"><path d="M 291.417969 592.410156 L 191.65625 423.988281 L 337.488281 337.605469 L 437.253906 506.027344 Z M 291.417969 592.410156 " clip-rule="nonzero"/></clipPath><clipPath id="9a223faa9b"><path d="M 291.417969 592.410156 L 191.65625 423.988281 L 337.488281 337.605469 L 437.253906 506.027344 Z M 291.417969 592.410156 " clip-rule="nonzero"/></clipPath><clipPath id="810a93142d"><path d="M 227 412 L 403 412 L 403 512 L 227 512 Z M 227 412 " clip-rule="nonzero"/></clipPath><clipPath id="579471bc27"><path d="M 296.839844 562.558594 L 218.097656 429.628906 L 332.960938 361.589844 L 411.699219 494.519531 Z M 296.839844 562.558594 " clip-rule="nonzero"/></clipPath><clipPath id="ac83f7d1b9"><path d="M 296.839844 562.558594 L 218.097656 429.628906 L 332.960938 361.589844 L 411.699219 494.519531 Z M 296.839844 562.558594 " clip-rule="nonzero"/></clipPath><clipPath id="c9954873db"><path d="M 296.839844 562.558594 L 218.097656 429.628906 L 332.960938 361.589844 L 411.699219 494.519531 Z M 296.839844 562.558594 " clip-rule="nonzero"/></clipPath><clipPath id="879ba41cf1"><path d="M 268 429 L 403 429 L 403 515 L 268 515 Z M 268 429 " clip-rule="nonzero"/></clipPath><clipPath id="f68afd7310"><path d="M 395.761719 518 L 255.8125 458.046875 L 273.832031 415.992188 L 413.777344 475.949219 Z M 395.761719 518 " clip-rule="nonzero"/></clipPath><clipPath id="80b42bc0e6"><path d="M 395.761719 518 L 255.8125 458.046875 L 273.832031 415.992188 L 413.777344 475.949219 Z M 395.761719 518 " clip-rule="nonzero"/></clipPath></defs><g clip-path="url(#23c9ca8c8a)"><g transform="matrix(1, 0, 0, 1, 0, 0.000000000000039746)"><g clip-path="url(#b99d2f225e)"><g clip-path="url(#26fa9d6f19)"><g clip-path="url(#96634ec355)"><rect x="-178.2" width="1166.4" fill="#68b940" height="1166.39999" y="-178.199998" fill-opacity="1"/></g></g></g></g></g><g clip-path="url(#252fd61170)"><g clip-path="url(#f6a45da320)"><g transform="matrix(1, 0, 0, 1, 36, 36)"><g clip-path="url(#deae9ddb21)"><g clip-path="url(#ee855ef52c)"><g clip-path="url(#7f95dad08e)"><path fill="#fdfdfd" d="M 0.0859375 0.0859375 L 737.914062 0.0859375 L 737.914062 737.914062 L 0.0859375 737.914062 Z M 0.0859375 0.0859375 " fill-opacity="1" fill-rule="nonzero"/></g></g></g></g></g></g><g clip-path="url(#8913d5c57e)"><g clip-path="url(#be7e582501)"><g transform="matrix(1, 0, 0, 1, 83, 83)"><g clip-path="url(#b86625a649)"><g clip-path="url(#33986f85ca)"><g clip-path="url(#bb3894e0ac)"><path fill="#34ab53" d="M 0.101562 0.101562 L 643.894531 0.101562 L 643.894531 643.898438 L 0.101562 643.898438 Z M 0.101562 0.101562 " fill-opacity="1" fill-rule="nonzero"/></g></g></g></g></g></g><g clip-path="url(#d6650de886)"><g clip-path="url(#776ba0500a)"><g clip-path="url(#9d08fc00a4)"><path fill="#fdfdfd" d="M 485.855469 363.417969 C 481.40625 456.804688 399.023438 528.742188 399.023438 528.742188 C 399.023438 528.742188 323.820312 449.308594 328.136719 355.816406 C 332.453125 262.320312 414.972656 190.492188 414.972656 190.492188 C 414.972656 190.492188 490.308594 270.035156 485.855469 363.417969 Z M 485.855469 363.417969 " fill-opacity="1" fill-rule="nonzero"/></g></g></g><g clip-path="url(#d224495176)"><g clip-path="url(#cfc405bfaf)"><g clip-path="url(#3ebead33ee)"><path fill="#ffffff" d="M 468.785156 349.773438 C 465.296875 422.949219 400.742188 479.324219 400.742188 479.324219 C 400.742188 479.324219 341.8125 417.078125 345.195312 343.8125 C 348.578125 270.550781 413.238281 214.265625 413.238281 214.265625 C 413.238281 214.265625 472.273438 276.597656 468.785156 349.773438 Z M 468.785156 349.773438 " fill-opacity="1" fill-rule="nonzero"/></g></g></g><g clip-path="url(#1d58a4d1a4)"><g clip-path="url(#e44cc2429d)"><g clip-path="url(#5cb30db73f)"><g clip-path="url(#602d50a532)"><path fill="#34ab53" d="M 453.851562 349.34375 C 451.089844 406.769531 400.417969 451.03125 400.417969 451.03125 C 400.417969 451.03125 354.203125 402.203125 356.882812 344.710938 C 359.5625 287.214844 410.316406 243.019531 410.316406 243.019531 C 410.316406 243.019531 456.613281 291.914062 453.851562 349.34375 Z M 453.851562 349.34375 " fill-opacity="1" fill-rule="nonzero"/></g></g></g></g><g clip-path="url(#b70717228e)"><g clip-path="url(#956207b535)"><g clip-path="url(#0ab1ae5ded)"><g clip-path="url(#1e4c1010ea)"><path fill="#ffffff" d="M 427.882812 391.375 C 430.175781 366.527344 419.941406 345.472656 407.386719 325.78125 C 407.28125 325.71875 407.191406 325.683594 407.121094 325.675781 C 406.972656 325.664062 406.894531 325.765625 406.875 325.976562 C 406.460938 330.488281 420.117188 353.734375 417.398438 383.222656 C 414.019531 419.828125 400.1875 435.898438 398.742188 451.5625 C 398.203125 457.394531 401.261719 463.605469 404.039062 468.722656 C 403.585938 466.222656 403.53125 463.835938 403.746094 461.492188 C 405.945312 437.660156 424.832031 424.453125 427.882812 391.375 " fill-opacity="1" fill-rule="nonzero"/></g></g></g></g><g clip-path="url(#4c5c757c5f)"><g clip-path="url(#24e9c380eb)"><g clip-path="url(#22f8901f98)"><path fill="#fdfdfd" d="M 544.523438 436.460938 C 497.597656 495.414062 409.835938 503.613281 409.835938 503.613281 C 409.835938 503.613281 398.113281 416.238281 445 357.152344 C 491.886719 298.066406 579.6875 290.003906 579.6875 290.003906 C 579.6875 290.003906 591.445312 377.511719 544.523438 436.460938 Z M 544.523438 436.460938 " fill-opacity="1" fill-rule="nonzero"/></g></g></g><g clip-path="url(#7d83dfcfcc)"><g clip-path="url(#cc6192d899)"><g clip-path="url(#a83e0ed3e0)"><path fill="#ffffff" d="M 536.851562 447.8125 C 491.226562 505.132812 405.890625 513.105469 405.890625 513.105469 C 405.890625 513.105469 394.496094 428.148438 440.082031 370.699219 C 485.671875 313.25 571.042969 305.410156 571.042969 305.410156 C 571.042969 305.410156 582.476562 390.496094 536.851562 447.8125 Z M 536.851562 447.8125 " fill-opacity="1" fill-rule="nonzero"/></g></g></g><g clip-path="url(#7875a0d609)"><g clip-path="url(#e10475987d)"><g clip-path="url(#db92a66510)"><g clip-path="url(#bb04c45452)"><path fill="#34ab53" d="M 524.988281 438.730469 C 489.160156 483.695312 422.171875 489.964844 422.171875 489.964844 C 422.171875 489.964844 413.242188 423.332031 449.039062 378.261719 C 484.835938 333.191406 551.851562 327.023438 551.851562 327.023438 C 551.851562 327.023438 560.8125 393.761719 524.988281 438.730469 Z M 524.988281 438.730469 " fill-opacity="1" fill-rule="nonzero"/></g></g></g></g><g clip-path="url(#8f41ff1971)"><g clip-path="url(#157a2dc751)"><g transform="matrix(1, 0, 0, 1, 395, 344)"><g clip-path="url(#5da73f64cd)"><g clip-path="url(#3eec78b8f2)"><g clip-path="url(#857d8741b4)"><g clip-path="url(#dd3220f517)"><path fill="#fdfdfd" d="M 53.011719 63.648438 C 45.9375 72.628906 39.875 81.367188 34.613281 90.648438 C 30.230469 98.378906 26.429688 106.375 23.660156 114.832031 C 22.160156 119.410156 21.019531 124.070312 20.5 128.867188 C 20.109375 132.480469 20.089844 136.089844 20.765625 139.679688 C 21.21875 142.089844 21.992188 144.386719 23.246094 146.507812 C 25.457031 150.253906 28.703125 152.6875 32.816406 154 C 35.941406 154.996094 39.15625 155.253906 42.414062 155.066406 C 43.402344 155.007812 44.261719 154.644531 45.003906 153.992188 C 45.867188 153.230469 45.746094 152.128906 44.710938 151.609375 C 44.03125 151.269531 43.304688 151.023438 42.636719 150.660156 C 40.140625 149.296875 38.3125 147.300781 37.011719 144.792969 C 35.75 142.355469 35.09375 139.738281 34.757812 137.03125 C 34.332031 133.632812 34.421875 130.234375 34.792969 126.835938 C 35.410156 121.195312 36.761719 115.71875 38.480469 110.328125 C 40.800781 103.054688 43.816406 96.070312 47.253906 89.261719 C 51.742188 80.367188 56.894531 71.871094 62.605469 63.710938 C 68.066406 55.921875 73.957031 48.472656 80.347656 41.429688 C 87.613281 33.421875 95.425781 25.996094 103.984375 19.375 C 107.128906 16.941406 110.386719 14.660156 113.644531 12.378906 C 114.214844 11.980469 114.785156 11.578125 115.292969 11.097656 C 115.402344 10.996094 115.511719 10.890625 115.582031 10.761719 C 115.667969 10.601562 115.605469 10.457031 115.40625 10.460938 C 115.21875 10.464844 115.03125 10.507812 114.847656 10.5625 C 114.21875 10.746094 113.625 11.03125 113.027344 11.300781 C 109.390625 12.933594 105.980469 14.972656 102.648438 17.152344 C 96.234375 21.355469 90.179688 26.035156 84.363281 31.027344 C 75.195312 38.902344 66.714844 47.457031 58.828125 56.609375 C 56.671875 59.113281 54.589844 61.671875 53.011719 63.648438 Z M 53.011719 63.648438 " fill-opacity="1" fill-rule="nonzero"/></g></g></g></g></g></g></g><g clip-path="url(#80bc8511ce)"><g clip-path="url(#6b2d167a44)"><g clip-path="url(#577f7369c6)"><path fill="#fdfdfd" d="M 378.167969 360.699219 C 419.484375 420.464844 402.558594 503.761719 402.558594 503.761719 C 402.558594 503.761719 318.636719 490.195312 277.183594 430.425781 C 235.730469 370.65625 252.792969 287.363281 252.792969 287.363281 C 252.792969 287.363281 336.847656 300.933594 378.167969 360.699219 Z M 378.167969 360.699219 " fill-opacity="1" fill-rule="nonzero"/></g></g></g><g clip-path="url(#7e73d94103)"><g clip-path="url(#cee69f0adc)"><g clip-path="url(#e8d003751c)"><path fill="#ffffff" d="M 383.234375 374.457031 C 423.253906 432.347656 406.859375 513.03125 406.859375 513.03125 C 406.859375 513.03125 325.570312 499.890625 285.417969 441.996094 C 245.269531 384.101562 261.792969 303.417969 261.792969 303.417969 C 261.792969 303.417969 343.214844 316.5625 383.234375 374.457031 Z M 383.234375 374.457031 " fill-opacity="1" fill-rule="nonzero"/></g></g></g><g clip-path="url(#4d0a4e999b)"><g clip-path="url(#802fe4d668)"><g clip-path="url(#c5b0e8146a)"><g clip-path="url(#fa3b8407b5)"><path fill="#34ab53" d="M 374.78125 379.347656 C 406.28125 424.976562 393.375 488.570312 393.375 488.570312 C 393.375 488.570312 329.390625 478.214844 297.785156 432.585938 C 266.183594 386.953125 279.195312 323.363281 279.195312 323.363281 C 279.195312 323.363281 343.28125 333.71875 374.78125 379.347656 Z M 374.78125 379.347656 " fill-opacity="1" fill-rule="nonzero"/></g></g></g></g><g clip-path="url(#a60303b77d)"><g clip-path="url(#7c7c223936)"><g clip-path="url(#d32cbe52b4)"><path fill="#fdfdfd" d="M 369.921875 405.980469 C 376.171875 415.0625 381.464844 423.847656 385.953125 433.105469 C 389.691406 440.820312 392.855469 448.75 394.996094 457.0625 C 396.152344 461.558594 396.960938 466.117188 397.164062 470.765625 C 397.316406 474.269531 397.109375 477.742188 396.238281 481.15625 C 395.652344 483.449219 394.765625 485.609375 393.425781 487.574219 C 391.066406 491.039062 387.792969 493.183594 383.75 494.1875 C 380.679688 494.953125 377.574219 495.003906 374.445312 494.621094 C 373.5 494.503906 372.695312 494.101562 372.023438 493.425781 C 371.238281 492.640625 371.425781 491.585938 372.453125 491.152344 C 373.128906 490.867188 373.839844 490.675781 374.507812 490.367188 C 376.996094 489.210938 378.878906 487.402344 380.285156 485.070312 C 381.652344 482.800781 382.445312 480.324219 382.9375 477.742188 C 383.554688 474.496094 383.683594 471.21875 383.535156 467.925781 C 383.289062 462.460938 382.332031 457.105469 381.007812 451.808594 C 379.226562 444.664062 376.757812 437.753906 373.871094 430.988281 C 370.105469 422.148438 365.675781 413.652344 360.683594 405.445312 C 355.914062 397.609375 350.707031 390.074219 344.988281 382.898438 C 338.496094 374.742188 331.4375 367.109375 323.609375 360.207031 C 320.734375 357.667969 317.742188 355.273438 314.75 352.875 C 314.222656 352.453125 313.699219 352.03125 313.238281 351.539062 C 313.144531 351.433594 313.042969 351.324219 312.984375 351.199219 C 312.910156 351.035156 312.980469 350.902344 313.171875 350.917969 C 313.351562 350.933594 313.53125 350.988281 313.699219 351.050781 C 314.296875 351.265625 314.847656 351.578125 315.40625 351.875 C 318.808594 353.671875 321.964844 355.847656 325.03125 358.152344 C 330.945312 362.59375 336.484375 367.472656 341.769531 372.640625 C 350.105469 380.785156 357.738281 389.546875 364.761719 398.84375 C 366.679688 401.386719 368.523438 403.980469 369.921875 405.980469 Z M 369.921875 405.980469 " fill-opacity="1" fill-rule="nonzero"/></g></g></g><g clip-path="url(#7f356281b2)"><g clip-path="url(#d3ab645543)"><g clip-path="url(#43949f81db)"><path fill="#fdfdfd" d="M 480.996094 555.230469 C 438.039062 556.195312 402.40625 520.742188 402.40625 520.742188 C 402.40625 520.742188 436.402344 483.710938 479.402344 482.679688 C 522.402344 481.648438 557.992188 517.164062 557.992188 517.164062 C 557.992188 517.164062 523.949219 554.261719 480.996094 555.230469 Z M 480.996094 555.230469 " fill-opacity="1" fill-rule="nonzero"/></g></g></g><g clip-path="url(#e01ebe4d11)"><g clip-path="url(#1582396d4e)"><g clip-path="url(#3ccbf4db51)"><path fill="#ffffff" d="M 472.929688 552.589844 C 434.113281 553.464844 401.914062 521.425781 401.914062 521.425781 C 401.914062 521.425781 432.632812 487.960938 471.492188 487.03125 C 510.351562 486.097656 542.507812 518.191406 542.507812 518.191406 C 542.507812 518.191406 511.746094 551.71875 472.929688 552.589844 Z M 472.929688 552.589844 " fill-opacity="1" fill-rule="nonzero"/></g></g></g><g clip-path="url(#2f10af7d2a)"><g clip-path="url(#1e4abc48c8)"><g clip-path="url(#252b8c8be3)"><g clip-path="url(#5d2c65e84c)"><path fill="#34ab53" d="M 472.8125 547.316406 C 440.101562 548.046875 412.964844 521.050781 412.964844 521.050781 C 412.964844 521.050781 438.847656 492.859375 471.589844 492.082031 C 504.332031 491.300781 531.433594 518.347656 531.433594 518.347656 C 531.433594 518.347656 505.519531 546.589844 472.8125 547.316406 Z M 472.8125 547.316406 " fill-opacity="1" fill-rule="nonzero"/></g></g></g></g><g clip-path="url(#28a79c80f6)"><g clip-path="url(#1bb470990a)"><g transform="matrix(1, 0, 0, 1, 410, 501)"><g clip-path="url(#e75d834352)"><g clip-path="url(#9898b1f17e)"><g clip-path="url(#511e58fcec)"><g clip-path="url(#2d0ca90947)"><path fill="#fdfdfd" d="M 48.378906 1.433594 C 41.863281 1.613281 35.824219 2.144531 29.839844 3.230469 C 24.851562 4.132812 19.960938 5.386719 15.246094 7.261719 C 12.695312 8.273438 10.238281 9.476562 7.945312 11 C 6.21875 12.148438 4.632812 13.457031 3.308594 15.0625 C 2.417969 16.140625 1.695312 17.320312 1.222656 18.640625 C 0.386719 20.976562 0.507812 23.289062 1.433594 25.570312 C 2.136719 27.300781 3.199219 28.804688 4.46875 30.164062 C 4.855469 30.574219 5.328125 30.816406 5.886719 30.902344 C 6.535156 31.003906 6.972656 30.546875 6.820312 29.90625 C 6.722656 29.484375 6.566406 29.078125 6.480469 28.648438 C 6.164062 27.058594 6.375 25.53125 6.996094 24.046875 C 7.605469 22.601562 8.511719 21.359375 9.574219 20.226562 C 10.90625 18.796875 12.429688 17.59375 14.054688 16.519531 C 16.75 14.730469 19.640625 13.324219 22.628906 12.109375 C 26.664062 10.46875 30.824219 9.238281 35.0625 8.261719 C 40.59375 6.980469 46.195312 6.132812 51.855469 5.660156 C 57.261719 5.207031 62.671875 5.066406 68.09375 5.292969 C 74.253906 5.554688 80.355469 6.265625 86.378906 7.597656 C 88.59375 8.085938 90.78125 8.679688 92.96875 9.273438 C 93.355469 9.378906 93.738281 9.480469 94.136719 9.53125 C 94.21875 9.539062 94.304688 9.546875 94.386719 9.53125 C 94.488281 9.511719 94.53125 9.433594 94.457031 9.347656 C 94.382812 9.265625 94.296875 9.199219 94.207031 9.140625 C 93.894531 8.929688 93.554688 8.777344 93.21875 8.613281 C 91.175781 7.613281 89.039062 6.863281 86.867188 6.203125 C 82.683594 4.925781 78.425781 3.980469 74.113281 3.257812 C 67.320312 2.117188 60.476562 1.523438 53.585938 1.410156 C 51.703125 1.378906 49.824219 1.402344 48.378906 1.433594 Z M 48.378906 1.433594 " fill-opacity="1" fill-rule="nonzero"/></g></g></g></g></g></g></g><g clip-path="url(#f3b5702c43)"><g clip-path="url(#d149751094)"><g clip-path="url(#9ca95e98c2)"><path fill="#fdfdfd" d="M 342.011719 482.042969 C 384.46875 486.1875 415.382812 525.363281 415.382812 525.363281 C 415.382812 525.363281 377.476562 557.832031 334.96875 553.746094 C 292.460938 549.65625 261.601562 510.425781 261.601562 510.425781 C 261.601562 510.425781 299.558594 477.898438 342.011719 482.042969 Z M 342.011719 482.042969 " fill-opacity="1" fill-rule="nonzero"/></g></g></g><g clip-path="url(#8b3e51094e)"><g clip-path="url(#4620bb0958)"><g clip-path="url(#73403b800b)"><path fill="#ffffff" d="M 349.648438 485.597656 C 388.015625 489.34375 415.957031 524.746094 415.957031 524.746094 C 415.957031 524.746094 381.699219 554.089844 343.285156 550.394531 C 304.871094 546.699219 276.980469 511.246094 276.980469 511.246094 C 276.980469 511.246094 311.28125 481.847656 349.648438 485.597656 Z M 349.648438 485.597656 " fill-opacity="1" fill-rule="nonzero"/></g></g></g><g clip-path="url(#99c1377c12)"><g clip-path="url(#be2b8718bc)"><g clip-path="url(#fa00bbb7bf)"><g clip-path="url(#6e062435bb)"><path fill="#34ab53" d="M 349.09375 490.929688 C 381.382812 494.105469 404.917969 523.914062 404.917969 523.914062 C 404.917969 523.914062 376.109375 548.578125 343.78125 545.445312 C 311.449219 542.3125 287.953125 512.460938 287.953125 512.460938 C 287.953125 512.460938 316.800781 487.75 349.09375 490.929688 Z M 349.09375 490.929688 " fill-opacity="1" fill-rule="nonzero"/></g></g></g></g><g clip-path="url(#f889986ba8)"><g clip-path="url(#c98f874979)"><g clip-path="url(#e371ad6c68)"><path fill="#fdfdfd" d="M 359.179688 502.910156 C 365.621094 503.554688 371.5625 504.511719 377.414062 506.011719 C 382.289062 507.261719 387.042969 508.851562 391.582031 511.042969 C 394.035156 512.230469 396.386719 513.597656 398.546875 515.269531 C 400.171875 516.527344 401.652344 517.9375 402.851562 519.625 C 403.65625 520.753906 404.289062 521.972656 404.660156 523.316406 C 405.320312 525.691406 405.039062 527.96875 403.957031 530.164062 C 403.136719 531.828125 401.980469 533.242188 400.621094 534.496094 C 400.210938 534.875 399.726562 535.085938 399.167969 535.128906 C 398.515625 535.183594 398.117188 534.699219 398.3125 534.074219 C 398.441406 533.664062 398.625 533.273438 398.738281 532.855469 C 399.164062 531.300781 399.066406 529.773438 398.554688 528.257812 C 398.058594 526.785156 397.246094 525.492188 396.277344 524.289062 C 395.058594 522.78125 393.636719 521.480469 392.105469 520.300781 C 389.5625 518.335938 386.796875 516.734375 383.921875 515.320312 C 380.042969 513.410156 376.011719 511.894531 371.886719 510.621094 C 366.496094 508.960938 361.007812 507.722656 355.433594 506.847656 C 350.113281 506.015625 344.761719 505.492188 339.378906 505.332031 C 333.257812 505.148438 327.164062 505.417969 321.101562 506.308594 C 318.875 506.636719 316.664062 507.070312 314.457031 507.5 C 314.066406 507.578125 313.679688 507.652344 313.28125 507.667969 C 313.199219 507.675781 313.113281 507.675781 313.035156 507.65625 C 312.933594 507.628906 312.898438 507.546875 312.980469 507.464844 C 313.054688 507.390625 313.148438 507.332031 313.238281 507.277344 C 313.5625 507.09375 313.910156 506.964844 314.257812 506.824219 C 316.351562 505.984375 318.523438 505.394531 320.71875 504.890625 C 324.953125 503.925781 329.238281 503.292969 333.558594 502.882812 C 340.371094 502.238281 347.191406 502.140625 354.023438 502.519531 C 355.890625 502.621094 357.753906 502.777344 359.179688 502.910156 Z M 359.179688 502.910156 " fill-opacity="1" fill-rule="nonzero"/></g></g></g><g clip-path="url(#2da03a66be)"><g clip-path="url(#e97e93500f)"><g clip-path="url(#0e3b5aa0d2)"><path fill="#fdfdfd" d="M 521.039062 521.957031 C 462.398438 540.085938 399.574219 505.316406 399.574219 505.316406 C 399.574219 505.316406 431.792969 441.140625 490.46875 422.898438 C 549.144531 404.660156 611.933594 439.539062 611.933594 439.539062 C 611.933594 439.539062 579.675781 503.824219 521.039062 521.957031 Z M 521.039062 521.957031 " fill-opacity="1" fill-rule="nonzero"/></g></g></g><g clip-path="url(#f02d3fcd27)"><g clip-path="url(#9594002858)"><g clip-path="url(#617e2dcf54)"><path fill="#fffbf9" d="M 510.667969 526.074219 C 453.652344 543.703125 392.566406 509.894531 392.566406 509.894531 C 392.566406 509.894531 423.894531 447.492188 480.945312 429.757812 C 537.996094 412.023438 599.046875 445.9375 599.046875 445.9375 C 599.046875 445.9375 567.679688 508.445312 510.667969 526.074219 Z M 510.667969 526.074219 " fill-opacity="1" fill-rule="nonzero"/></g></g></g><g clip-path="url(#b20561d9d4)"><g clip-path="url(#79f0dd235b)"><g clip-path="url(#e68b8d9439)"><g clip-path="url(#bca93a0e41)"><path fill="#34ab53" d="M 506.683594 514.550781 C 461.980469 528.410156 414.105469 501.894531 414.105469 501.894531 C 414.105469 501.894531 438.6875 452.902344 483.421875 438.960938 C 528.152344 425.019531 576 451.613281 576 451.613281 C 576 451.613281 551.390625 500.691406 506.683594 514.550781 Z M 506.683594 514.550781 " fill-opacity="1" fill-rule="nonzero"/></g></g></g></g><g clip-path="url(#30f594df9f)"><g clip-path="url(#574864af54)"><g transform="matrix(1, 0, 0, 1, 403, 438)"><g clip-path="url(#13abe8f4c7)"><g clip-path="url(#d062c1f74f)"><g clip-path="url(#26fea8b596)"><g clip-path="url(#17d70bfc59)"><path fill="#fffbf9" d="M 66.316406 20.265625 C 57.433594 23.0625 49.339844 26.15625 41.539062 29.988281 C 35.042969 33.179688 28.8125 36.816406 23.0625 41.238281 C 19.953125 43.628906 17.046875 46.242188 14.496094 49.234375 C 12.574219 51.484375 10.902344 53.90625 9.710938 56.632812 C 8.910156 58.460938 8.375 60.363281 8.246094 62.363281 C 8.011719 65.902344 9.082031 69.03125 11.246094 71.800781 C 12.894531 73.90625 14.9375 75.554688 17.214844 76.925781 C 17.90625 77.339844 18.652344 77.492188 19.449219 77.390625 C 20.382812 77.273438 20.804688 76.476562 20.347656 75.65625 C 20.046875 75.113281 19.671875 74.613281 19.386719 74.0625 C 18.332031 72 18.019531 69.816406 18.296875 67.53125 C 18.566406 65.3125 19.324219 63.25 20.339844 61.273438 C 21.617188 58.789062 23.238281 56.542969 25.046875 54.425781 C 28.050781 50.914062 31.472656 47.851562 35.109375 45.011719 C 40.007812 41.179688 45.246094 37.863281 50.683594 34.859375 C 57.789062 30.933594 65.15625 27.578125 72.746094 24.710938 C 79.996094 21.976562 87.378906 19.667969 94.917969 17.859375 C 103.480469 15.804688 112.148438 14.394531 120.949219 13.867188 C 124.183594 13.675781 127.421875 13.636719 130.660156 13.59375 C 131.226562 13.585938 131.796875 13.578125 132.359375 13.488281 C 132.476562 13.46875 132.601562 13.449219 132.707031 13.394531 C 132.839844 13.324219 132.863281 13.199219 132.726562 13.113281 C 132.601562 13.03125 132.453125 12.972656 132.304688 12.925781 C 131.796875 12.757812 131.265625 12.679688 130.742188 12.585938 C 127.542969 12.015625 124.3125 11.820312 121.070312 11.761719 C 114.824219 11.644531 108.597656 12.011719 102.394531 12.703125 C 92.609375 13.792969 82.972656 15.660156 73.460938 18.199219 C 70.863281 18.890625 68.285156 19.660156 66.316406 20.265625 Z M 66.316406 20.265625 " fill-opacity="1" fill-rule="nonzero"/></g></g></g></g></g></g></g><g clip-path="url(#0c2d640011)"><g clip-path="url(#02e2803a70)"><g clip-path="url(#a273f60221)"><path fill="#fdfdfd" d="M 325.914062 404.664062 C 389.1875 431.882812 417.511719 507.324219 417.511719 507.324219 C 417.511719 507.324219 343.261719 538.664062 279.878906 511.507812 C 216.492188 484.351562 188.277344 408.84375 188.277344 408.84375 C 188.277344 408.84375 262.636719 377.441406 325.914062 404.664062 Z M 325.914062 404.664062 " fill-opacity="1" fill-rule="nonzero"/></g></g></g><g clip-path="url(#7fe7886615)"><g clip-path="url(#8a14dd0f7d)"><g clip-path="url(#9a223faa9b)"><path fill="#fffbf9" d="M 336.910156 413.160156 C 398.195312 439.527344 425.632812 512.597656 425.632812 512.597656 C 425.632812 512.597656 353.714844 542.953125 292.320312 516.648438 C 230.925781 490.347656 203.597656 417.210938 203.597656 417.210938 C 203.597656 417.210938 275.621094 386.796875 336.910156 413.160156 Z M 336.910156 413.160156 " fill-opacity="1" fill-rule="nonzero"/></g></g></g><g clip-path="url(#810a93142d)"><g clip-path="url(#579471bc27)"><g clip-path="url(#ac83f7d1b9)"><g clip-path="url(#c9954873db)"><path fill="#34ab53" d="M 332.394531 421.292969 C 380.660156 442.167969 402.351562 499.816406 402.351562 499.816406 C 402.351562 499.816406 345.796875 523.648438 297.445312 502.828125 C 249.097656 482.003906 227.492188 424.304688 227.492188 424.304688 C 227.492188 424.304688 284.128906 400.421875 332.394531 421.292969 Z M 332.394531 421.292969 " fill-opacity="1" fill-rule="nonzero"/></g></g></g></g><g clip-path="url(#879ba41cf1)"><g clip-path="url(#f68afd7310)"><g clip-path="url(#80b42bc0e6)"><path fill="#fffbf9" d="M 342.078125 445.191406 C 351.667969 449.34375 360.339844 453.734375 368.601562 458.914062 C 375.484375 463.226562 382.019531 468.007812 387.921875 473.605469 C 391.113281 476.636719 394.054688 479.890625 396.558594 483.523438 C 398.441406 486.257812 400.027344 489.152344 401.042969 492.335938 C 401.722656 494.46875 402.101562 496.652344 402.015625 498.902344 C 401.863281 502.875 400.308594 506.242188 397.570312 509.085938 C 395.492188 511.246094 393.019531 512.851562 390.316406 514.113281 C 389.496094 514.496094 388.648438 514.578125 387.765625 514.375 C 386.738281 514.136719 386.359375 513.199219 386.96875 512.332031 C 387.367188 511.765625 387.84375 511.25 388.222656 510.664062 C 389.640625 508.488281 390.242188 506.085938 390.199219 503.503906 C 390.15625 500.996094 389.542969 498.605469 388.640625 496.285156 C 387.503906 493.363281 385.957031 490.667969 384.179688 488.097656 C 381.234375 483.832031 377.769531 480.011719 374.042969 476.421875 C 369.015625 471.582031 363.554688 467.273438 357.832031 463.289062 C 350.359375 458.085938 342.527344 453.492188 334.386719 449.414062 C 326.609375 445.515625 318.636719 442.085938 310.433594 439.195312 C 301.113281 435.914062 291.605469 433.335938 281.84375 431.730469 C 278.257812 431.136719 274.648438 430.71875 271.039062 430.300781 C 270.402344 430.226562 269.769531 430.148438 269.152344 429.984375 C 269.023438 429.949219 268.886719 429.910156 268.777344 429.839844 C 268.632812 429.746094 268.621094 429.605469 268.785156 429.523438 C 268.9375 429.445312 269.109375 429.394531 269.277344 429.359375 C 269.863281 429.234375 270.464844 429.207031 271.0625 429.164062 C 274.699219 428.898438 278.328125 429.054688 281.953125 429.363281 C 288.9375 429.957031 295.839844 431.085938 302.6875 432.578125 C 313.480469 434.925781 324.019531 438.125 334.339844 442.058594 C 337.160156 443.132812 339.949219 444.289062 342.078125 445.191406 Z M 342.078125 445.191406 " fill-opacity="1" fill-rule="nonzero"/></g></g></g></svg>